<?xml version="1.0" encoding="UTF-8" standalone="no"?>
<!-- Created with Inkscape (http://www.inkscape.org/) -->

<svg
   xmlns:dc="http://purl.org/dc/elements/1.1/"
   xmlns:cc="http://creativecommons.org/ns#"
   xmlns:rdf="http://www.w3.org/1999/02/22-rdf-syntax-ns#"
   xmlns:svg="http://www.w3.org/2000/svg"
   xmlns="http://www.w3.org/2000/svg"
   xmlns:sodipodi="http://sodipodi.sourceforge.net/DTD/sodipodi-0.dtd"
   xmlns:inkscape="http://www.inkscape.org/namespaces/inkscape"
   width="744.09448819"
   height="1052.3622047"
   id="svg2"
   version="1.1"
   inkscape:version="0.48.4 r9939"
   sodipodi:docname="level7.svg">
  <defs
     id="defs4" />
  <sodipodi:namedview
     id="base"
     pagecolor="#ffffff"
     bordercolor="#666666"
     borderopacity="1.0"
     inkscape:pageopacity="0.0"
     inkscape:pageshadow="2"
     inkscape:zoom="1"
     inkscape:cx="643.54529"
     inkscape:cy="701.88265"
     inkscape:document-units="px"
     inkscape:current-layer="layer1"
     showgrid="false"
     inkscape:snap-global="false"
     inkscape:snap-page="true"
     inkscape:window-width="1920"
     inkscape:window-height="1017"
     inkscape:window-x="-8"
     inkscape:window-y="-8"
     inkscape:window-maximized="1" />
  <metadata
     id="metadata7">
    <rdf:RDF>
      <cc:Work
         rdf:about="">
        <dc:format>image/svg+xml</dc:format>
        <dc:type
           rdf:resource="http://purl.org/dc/dcmitype/StillImage" />
        <dc:title />
      </cc:Work>
    </rdf:RDF>
  </metadata>
  <g
     inkscape:label="Vrstva 1"
     inkscape:groupmode="layer"
     id="layer1">
    <rect
       style="fill:#0000ff;fill-opacity:1;stroke:none"
       id="rect2985"
       width="564.18296457137"
       height="549.75422835079"
       x="0"
       y="0" />
    <path
       sodipodi:type="arc"
       style="fill:#00ff00;fill-opacity:1;stroke:none"
       id="path3013"
       sodipodi:cx="3.8054054"
       sodipodi:cy="5.5989327"
       sodipodi:rx="0.79567569"
       sodipodi:ry="1.1070271"
       d="m 4.6010811,5.5989327 a 0.79567569,1.1070271 0 1 1 -1.5913514,0 0.79567569,1.1070271 0 1 1 1.5913514,0 z"
       transform="matrix(17.812820551321,0,0,12.802964881991,-27.204356693128,160.91780315087)" />
    <path
       style="fill:#ff0000;stroke:none"
       d="M -2.7772146850612,259.15960984456 -9.7835155512581,566.92431496509 114.03887598515,565.15939370524 111.41915669379,549.33994488622 101.70925511891,538.23943701211 87.341233465255,525.24751181516 88.205233465261,261.68925472647 z"
       id="path3017-1-5"
       inkscape:connector-curvature="0"
       sodipodi:nodetypes="cccccccc" />
    <path
       style="fill:#ff00ff;stroke:none"
       d="M -2.7772150393919,-6.0296198031971 0.53513007874437,16.206763464695 292.04224724639,21.658153819068 305.07317008114,17.384745826909 314.96369173476,11.8139435434 323.47038543562,-3.3076208267977 z"
       id="path3017-1-2"
       inkscape:connector-curvature="0"
       sodipodi:nodetypes="ccccccc" />
    <path
       style="fill:none;stroke:#000000;stroke-width:5.3149609842938;stroke-linecap:butt;stroke-linejoin:miter;stroke-miterlimit:4;stroke-opacity:1;stroke-dasharray:none"
       d="M 392.42696457002,-62.988544488685 387.89712992431,139.20502677275 332.34442086876,278.76292441164"
       id="path3017-76"
       inkscape:connector-curvature="0"
       sodipodi:nodetypes="ccc" />
    <path
       style="fill:#ff0000;stroke:none"
       d="M 212.97237165522,20.241197716695 224.53963228523,467.05978346824 307.64173110478,470.7848976415 304.50911456933,18.011371889906 z"
       id="path3017-1-5-1"
       inkscape:connector-curvature="0"
       sodipodi:nodetypes="ccccc" />
    <path
       style="fill:none;stroke:#00ffff;stroke-width:5.3149606299631;stroke-linecap:butt;stroke-linejoin:miter;stroke-miterlimit:4;stroke-opacity:1;stroke-dasharray:none"
       d="m 100.82448070946,376.25644488485 50.841187795676,-12.757606299313 32.96121023648,-5.3753385827195 9.8574342520461,-1.4828740157597 11.801490944975,7.6828110236825 -4.2683917323171,15.298618110357 -46.434224409814,13.17093307097 -43.72184763814,7.9293188977002 -4.5608562992485,7.3938897638377 -0.20090551181261,8.910318897708 3.844913385857,8.7911220473133 96.576618898398,-12.892003937109 15.546759448941,-48.354129921641 -0.28842519685266,-7.9051181102985 -21.813094488361,-24.776280708857 -101.64218740238,1.1595826771745"
       id="path3017-7-4"
       inkscape:connector-curvature="0"
       sodipodi:nodetypes="cccccccccccccccc" />
    <path
       style="fill:none;stroke:#000000;stroke-width:5.3149609842938;stroke-linecap:butt;stroke-linejoin:miter;stroke-miterlimit:4;stroke-opacity:1;stroke-dasharray:none"
       d="m 190.49345787552,343.24966063262 -92.195489764505,5.3307921260262 -2.9809488189211,13.620614173336 28.441505905736,4.1106614173552 6.847327559109,8.5802598425872 -10.726331102447,13.119980315064 -19.029351968654,6.797267716589 -12.308513385924,16.08969685052 10.126438582757,16.233661417451 10.872722834731,15.831283464692 L 219.68264409622,429.83323228685 230.26246653725,408.66087401897 242.00176889954,353.63513976656 219.90889134031,323.05999606554"
       id="path3017-2"
       inkscape:connector-curvature="0"
       sodipodi:nodetypes="cccccccccccccc" />
    <path
       sodipodi:type="arc"
       style="fill:#ffff00;fill-opacity:1;stroke:none"
       id="path3015-3"
       sodipodi:cx="8.6486483"
       sodipodi:cy="8.2973108"
       sodipodi:rx="0.79567569"
       sodipodi:ry="0.55351353"
       d="m 9.444324,8.2973108 a 0.79567569,0.55351353 0 1 1 -1.5913514,0 0.79567569,0.55351353 0 1 1 1.5913514,0 z"
       transform="matrix(13.359615236326,0,0,19.204446968655,226.95050197029,249.38924173425)" />
    <path
       style="fill:#ff0000;stroke:none"
       d="M 472.8100393738,201.24876968662 460.85017323198,201.07061574961 409.69488189299,211.49114173395 397.51476378266,220.34940945055 387.54921260148,239.17322834834 386.4419291369,244.70964567122 416.33858268044,245.81692913579 413.01673228672,235.85137795461 l 22.145669291513,13.287401574908 -21.038385826937,13.287401574908 3.3218503937269,-9.9655511811808 -32.111220472694,0 -1.1072834645756,7.7509842520295 -8.9945787402283,57.578740157934 4.607539370115,241.38779527749 86.326015748711,4.4291338583026 L 469.48818898007,225.88582677343 l -4.4291338583026,2.2145669291513 -1.1072834645756,-8.8582677166052 0,-6.6437007874539 0,-8.8582677166052 5.5364173228782,3.3218503937269 z"
       id="path3017-1-5-1-2"
       inkscape:connector-curvature="0"
       sodipodi:nodetypes="ccccccccccccccccccccccc" />
    <path
       style="fill:none;stroke:#000000;stroke-width:5.3149609842938;stroke-linecap:butt;stroke-linejoin:miter;stroke-miterlimit:4;stroke-opacity:1;stroke-dasharray:none"
       d="m 195.74339882044,368.37120472731 -43.475017323177,11.974500000094 -14.053783464678,11.406047244184 8.5104035433741,12.96892913396 57.782366929589,-8.0289921260475 8.0974877953394,4.2617125984588 -0.20551181102524,12.333685039467 -85.389222047916,20.518830708823 3.4827519685314,21.770078740329 17.516423622185,1.4364566929247 42.597535039705,-0.95066929134607 16.116239763906,-7.8849566929755 26.133987401781,-8.51984645676 6.6964925197378,15.930779527684"
       id="path3017-2-1"
       inkscape:connector-curvature="0"
       sodipodi:nodetypes="cccccccccccccc" />
    <path
       style="fill:none;stroke:#00ffff;stroke-width:5.3149609842938;stroke-linecap:butt;stroke-linejoin:miter;stroke-miterlimit:4;stroke-opacity:1;stroke-dasharray:none"
       d="m 111.75921850482,477.43678346833 10.535042126067,7.9293188977002 16.477529527689,-5.89351181107 18.622913385973,-7.6989330709268 31.527000000248,-3.3888188976645 14.6376425198,1.5027165354449 12.224909055214,-18.457476378098 -6.9321259843066,-22.299803149782 -28.456795275815,8.4422125984917 -67.31640000053,11.125275590639"
       id="path3017-7-4-6"
       inkscape:connector-curvature="0"
       sodipodi:nodetypes="cccccccccc" />
    <path
       style="fill:none;stroke:#00ff00;stroke-width:5.3149609842938;stroke-linecap:butt;stroke-linejoin:miter;stroke-miterlimit:4;stroke-opacity:1;stroke-dasharray:none"
       d="M -2.1192643700954,256.29501968706 86.272805906191,258.79081889968"
       id="path3813-8"
       inkscape:connector-curvature="0"
       sodipodi:nodetypes="cc" />
    <path
       style="fill:none;stroke:#00ff00;stroke-width:5.3149609842938;stroke-linecap:butt;stroke-linejoin:miter;stroke-miterlimit:4;stroke-opacity:1;stroke-dasharray:none"
       d="m 111.93093070954,557.47612205163 306.52690393942,0.27992125984472"
       id="path3813-8-5"
       inkscape:connector-curvature="0"
       sodipodi:nodetypes="cc" />
    <path
       style="fill:#ff00ff;stroke:none"
       d="M 368.53603937298,38.733551575108 347.62200590825,48.301642913766 338.33937401841,71.009287795835 346.03404449091,92.756948032226 396.74583071179,94.729694882636 408.39983858589,95.18305039445 442.25872441293,82.897338189629 443.61357874365,68.76729921314 434.49884646011,61.172039764261 425.56553149941,42.313836614506 412.36688976703,35.849412992408 390.88817716843,34.389616535704 z"
       id="path3017-1-2-7"
       inkscape:connector-curvature="0"
       sodipodi:nodetypes="ccccccccccccc" />
    <path
       style="fill:#ff0000;stroke:none"
       d="M 462.56768504301,202.63287401734 466.16633858635,563.607283469 566.92913386273,552.53444882325 570.25098425646,317.79035433321 550.6672322878,255.51380905713 533.71062992546,239.17322834834 525.95964567343,220.34940945055 l -11.072834645756,-8.8582677166052 -39.093307086922,-10.71029763788 z"
       id="path3017-1-5-1-2-1"
       inkscape:connector-curvature="0"
       sodipodi:nodetypes="cccccccccc" />
    <path
       style="fill:none;stroke:#00ffff;stroke-width:5.3149609842938;stroke-linecap:butt;stroke-linejoin:miter;stroke-miterlimit:4;stroke-opacity:1;stroke-dasharray:none"
       d="m 496.2075944921,-48.421388976759 7.1267244095049,66.593219882414 -15.280299212719,44.427481299562 -1.9126771653694,62.383500000491 11.644263779619,22.732742126163"
       id="path3017-76-8"
       inkscape:connector-curvature="0"
       sodipodi:nodetypes="ccccc" />
    <path
       style="fill:#ff00ff;stroke:none"
       d="m 447.70914567282,68.942728347 -15.205358267836,-17.255214567065 -24.421570866334,-2.3220354330891 -18.594779527705,13.652925590659 19.658125984407,41.52214133891 10.131838582757,11.735961023714 11.72281889773,8.1904251969149 13.857696850503,6.2046035433559 15.909767716661,-6.0991795276071 2.3729527559242,-14.503854330823 -4.811527559093,-20.983687795441 z"
       id="path3017-1-2-7-3"
       inkscape:connector-curvature="0"
       sodipodi:nodetypes="cccccccccccc" />
    <path
       style="fill:#ff0000;stroke:none"
       d="m 466.79683464934,85.914974410125 3.16984251971,30.005596063228 3.3679133858533,0.10240157480396 3.118110236245,-30.161972834883 z"
       id="path3822-6"
       inkscape:connector-curvature="0"
       sodipodi:nodetypes="ccccc" />
    <path
       style="fill:#ff0000;fill-opacity:1;stroke:none"
       d="m 475.66970079115,122.99111220569 -1.3046456693016,3.2481496063248 -2.8094881889985,0.53992913386252 -2.2035826771827,-0.58241338583136 -1.2603543307186,-2.8814881889991 0.70157480315513,-2.3229921260025 2.7620078740375,-1.4651220472556 2.7191338582891,0.77424803150216 z"
       id="path3339"
       inkscape:connector-curvature="0"
       sodipodi:nodetypes="ccccccccc" />
  </g>
</svg>
