<?xml version="1.0" encoding="UTF-8" standalone="no"?>
<!-- Created with Inkscape (http://www.inkscape.org/) -->

<svg
   xmlns:dc="http://purl.org/dc/elements/1.1/"
   xmlns:cc="http://creativecommons.org/ns#"
   xmlns:rdf="http://www.w3.org/1999/02/22-rdf-syntax-ns#"
   xmlns:svg="http://www.w3.org/2000/svg"
   xmlns="http://www.w3.org/2000/svg"
   xmlns:sodipodi="http://sodipodi.sourceforge.net/DTD/sodipodi-0.dtd"
   xmlns:inkscape="http://www.inkscape.org/namespaces/inkscape"
   width="744.09448819"
   height="1052.3622047"
   id="svg2"
   version="1.1"
   inkscape:version="0.48.4 r9939"
   sodipodi:docname="level21.svg">
  <defs
     id="defs4" />
  <sodipodi:namedview
     id="base"
     pagecolor="#ffffff"
     bordercolor="#666666"
     borderopacity="1.0"
     inkscape:pageopacity="0.0"
     inkscape:pageshadow="2"
     inkscape:zoom="0.47237115"
     inkscape:cx="1085.5262"
     inkscape:cy="531.82809"
     inkscape:document-units="px"
     inkscape:current-layer="layer1"
     showgrid="false"
     inkscape:snap-global="false"
     inkscape:snap-page="true"
     inkscape:window-width="1920"
     inkscape:window-height="1017"
     inkscape:window-x="-8"
     inkscape:window-y="-8"
     inkscape:window-maximized="1" />
  <metadata
     id="metadata7">
    <rdf:RDF>
      <cc:Work
         rdf:about="">
        <dc:format>image/svg+xml</dc:format>
        <dc:type
           rdf:resource="http://purl.org/dc/dcmitype/StillImage" />
        <dc:title />
      </cc:Work>
    </rdf:RDF>
  </metadata>
  <g
     inkscape:label="Vrstva 1"
     inkscape:groupmode="layer"
     id="layer1">
    <rect
       style="fill:#0000ff;fill-opacity:1;stroke:none"
       id="rect2985"
       width="1490.9182441062"
       height="1269.1381181202"
       x="0"
       y="0" />
    <path
       sodipodi:type="arc"
       style="fill:#00ff00;fill-opacity:1;stroke:none"
       id="path3013"
       sodipodi:cx="3.8054054"
       sodipodi:cy="5.5989327"
       sodipodi:rx="0.79567569"
       sodipodi:ry="1.1070271"
       d="m 4.6010811,5.5989327 a 0.79567569,1.1070271 0 1 1 -1.5913514,0 0.79567569,1.1070271 0 1 1 1.5913514,0 z"
       transform="matrix(17.812820551321,0,0,12.802964881991,626.62354724903,591.70804724875)" />
    <path
       style="fill:#ff0000;stroke:none"
       d="m 661.42282677686,602.42336220947 95.511897638547,-2.0508661417484 18.521078740303,26.943980315173 -6.9453070866689,60.70386614221 14.880543307204,3.6477283464854 5.5549133858705,-65.367956693428 -6.2384881890255,-21.496074803319 -25.513547244295,-19.281153543459 -89.191877953458,0.69909448819448 -12.604606299312,2.8771653543534 -75.868086614771,64.520858268225 24.027342519874,5.1776929134266 z"
       id="path3017-1-42"
       inkscape:connector-curvature="0"
       sodipodi:nodetypes="ccccccccccccc" />
    <path
       style="fill:#ff0000;stroke:none"
       d="m 719.96215748598,727.75031102935 -93.157440945615,2.5051181102559 -18.064523622189,-32.911724409708 -4.8553937008256,-47.731358268092 -27.367334645885,-0.83019685040024 19.065082677315,49.802598425589 6.0847086614652,26.257110236427 24.884681102558,23.551759842705 86.993185040055,-0.85393700788074 12.293929133955,-3.5146062992403 61.144370079222,-50.321870079136 -11.805696850487,-14.612350393816 z"
       id="path3017-1-42-3"
       inkscape:connector-curvature="0"
       sodipodi:nodetypes="ccccccccccccc" />
    <path
       style="fill:#ff0000;stroke:none"
       d="m 661.7057952808,679.09475197385 3.9786732283778,13.019527559158 58.682940945344,-1.578543307099 -7.9925314961259,-11.689511811116 z"
       id="path3017-1-42-3-1"
       inkscape:connector-curvature="0"
       sodipodi:nodetypes="ccccc" />
    <path
       style="fill:none;stroke:#000000;stroke-width:5.3149609842938;stroke-linecap:butt;stroke-linejoin:miter;stroke-miterlimit:4;stroke-opacity:1;stroke-dasharray:none"
       d="m 564.15047244539,523.73721260255 29.817992126219,13.824744094597 51.503952756311,99.409145670074"
       id="path3017"
       inkscape:connector-curvature="0"
       sodipodi:nodetypes="ccc" />
    <path
       style="fill:#ff0000;stroke:none"
       d="m 503.04227953152,600.97872047717 67.715078740691,-1.8471259842665 13.130893700891,24.266338582868 -4.923992126023,54.67127952799 10.549842519768,3.2853543307345 3.9382795275901,-58.871870079204 -4.422933070901,-19.359814960782 -18.088334645812,-17.365074803286 -63.234354331207,0.6296456692963 -8.936291338653,2.5912204724613 -53.788216535857,58.108960630379 17.034661417457,4.6631338583044 z"
       id="path3017-1-42-34"
       inkscape:connector-curvature="0"
       sodipodi:nodetypes="ccccccccccccc" />
    <path
       style="fill:#ff0000;stroke:none"
       d="m 544.94383464996,705.15726378508 -63.068350394197,2.0040944882048 -12.229830708758,-26.328543307294 -3.2871259842779,-38.183881890064 -18.527917322981,-0.66401574803672 12.907204724511,39.84080314992 4.1194133858592,21.005043307252 16.847114173361,18.840791338731 58.895114173692,-0.68314960630459 8.3230866142388,-2.8116141732505 41.395216535759,-40.256220472758 -7.9925314961259,-11.689511811116 z"
       id="path3017-1-42-3-11"
       inkscape:connector-curvature="0"
       sodipodi:nodetypes="ccccccccccccc" />
    <path
       style="fill:#ff0000;stroke:none"
       d="m 832.38781890419,604.49485039846 67.715078740691,-1.8471259842665 13.130893700891,24.266338582868 -4.923992126023,54.67127952799 10.549842519768,3.2853543307345 3.9382795275901,-58.871870079204 -4.422933070901,-19.359814960782 -18.088334645812,-17.365074803286 -63.234354331207,0.6296456692963 -8.936291338653,2.5912204724613 -53.788216535857,58.108960630379 17.034661417457,4.6631338583044 z"
       id="path3017-1-42-7"
       inkscape:connector-curvature="0"
       sodipodi:nodetypes="ccccccccccccc" />
    <path
       style="fill:#ff0000;stroke:none"
       d="m 874.28937402263,708.67339370637 -63.068350394197,2.0040944882048 -12.229830708758,-26.328543307294 -3.2871259842779,-38.183881890064 -18.527917322981,-0.66401574803672 12.907204724511,39.84080314992 4.1194133858592,21.005043307252 16.847114173361,18.840791338731 58.895114173692,-0.68314960630459 8.3230866142388,-2.8116141732505 41.395216535759,-40.256220472758 -7.9925314961259,-11.689511811116 z"
       id="path3017-1-42-3-4"
       inkscape:connector-curvature="0"
       sodipodi:nodetypes="ccccccccccccc" />
    <path
       style="fill:#ff0000;stroke:none"
       d="m 483.11748425577,741.62448425781 67.715078740691,-1.8471259842665 13.130893700891,24.266338582868 -4.923992126023,54.67127952799 10.549842519768,3.2853543307345 3.9382795275901,-58.871870079204 -4.422933070901,-19.359814960782 -18.088334645812,-17.365074803286 -63.234354331207,0.6296456692963 -8.936291338653,2.5912204724613 -53.788216535857,58.108960630379 17.034661417457,4.6631338583044 z"
       id="path3017-1-42-9"
       inkscape:connector-curvature="0"
       sodipodi:nodetypes="ccccccccccccc" />
    <path
       style="fill:#ff0000;stroke:none"
       d="m 525.01903937421,845.80302756571 -63.068350394197,2.0040944882048 -12.229830708758,-26.328543307294 -3.2871259842779,-38.183881890064 -18.527917322981,-0.66401574803672 12.907204724511,39.84080314992 4.1194133858592,21.005043307252 16.847114173361,18.840791338731 58.895114173692,-0.68314960630459 8.3230866142388,-2.8116141732505 41.395216535759,-40.256220472758 -7.9925314961259,-11.689511811116 z"
       id="path3017-1-42-3-3"
       inkscape:connector-curvature="0"
       sodipodi:nodetypes="ccccccccccccc" />
    <path
       style="fill:#ff0000;stroke:none"
       d="m 633.13965354829,740.45246457276 67.715078740691,-1.8471259842665 13.130893700891,24.266338582868 -4.923992126023,54.67127952799 10.549842519768,3.2853543307345 3.9382795275901,-58.871870079204 -4.422933070901,-19.359814960782 -18.088334645812,-17.365074803286 -63.234354331207,0.6296456692963 -8.936291338653,2.5912204724613 -53.788216535857,58.108960630379 17.034661417457,4.6631338583044 z"
       id="path3017-1-42-8"
       inkscape:connector-curvature="0"
       sodipodi:nodetypes="ccccccccccccc" />
    <path
       style="fill:#ff0000;stroke:none"
       d="m 675.04120866673,844.63100788067 -63.068350394197,2.0040944882048 -12.229830708758,-26.328543307294 -3.2871259842779,-38.183881890064 -18.527917322981,-0.66401574803672 12.907204724511,39.84080314992 4.1194133858592,21.005043307252 16.847114173361,18.840791338731 58.895114173692,-0.68314960630459 8.3230866142388,-2.8116141732505 41.395216535759,-40.256220472758 -7.9925314961259,-11.689511811116 z"
       id="path3017-1-42-3-6"
       inkscape:connector-curvature="0"
       sodipodi:nodetypes="ccccccccccccc" />
    <path
       style="fill:#ff0000;stroke:none"
       d="m 786.6779527621,745.14064961217 67.715078740691,-1.8471259842665 13.130893700891,24.266338582868 -4.923992126023,54.67127952799 10.549842519768,3.2853543307345 3.9382795275901,-58.871870079204 -4.422933070901,-19.359814960782 -18.088334645812,-17.365074803286 -63.234354331207,0.6296456692963 -8.936291338653,2.5912204724613 -53.788216535857,58.108960630379 17.034661417457,4.6631338583044 z"
       id="path3017-1-42-2"
       inkscape:connector-curvature="0"
       sodipodi:nodetypes="ccccccccccccc" />
    <path
       style="fill:#ff0000;stroke:none"
       d="m 828.57950788054,849.31919292007 -63.068350394197,2.0040944882048 -12.229830708758,-26.328543307294 -3.2871259842779,-38.183881890064 -18.527917322981,-0.66401574803672 12.907204724511,39.84080314992 4.1194133858592,21.005043307252 16.847114173361,18.840791338731 58.895114173692,-0.68314960630459 8.3230866142388,-2.8116141732505 41.395216535759,-40.256220472758 -7.9925314961259,-11.689511811116 z"
       id="path3017-1-42-3-8"
       inkscape:connector-curvature="0"
       sodipodi:nodetypes="ccccccccccccc" />
    <path
       style="fill:#ff0000;stroke:none"
       d="m 670.64516929662,460.33295669654 67.715078740691,-1.8471259842665 13.130893700891,24.266338582868 -4.923992126023,54.67127952799 10.549842519768,3.2853543307345 3.9382795275901,-58.871870079204 -4.422933070901,-19.359814960782 -18.088334645812,-17.365074803286 -63.234354331207,0.6296456692963 -8.936291338653,2.5912204724613 -53.788216535857,58.108960630379 17.034661417457,4.6631338583044 z"
       id="path3017-1-42-0"
       inkscape:connector-curvature="0"
       sodipodi:nodetypes="ccccccccccccc" />
    <path
       style="fill:#ff0000;stroke:none"
       d="m 712.54672441506,564.51146457137 -63.068350394197,2.0040944882048 -12.229830708758,-26.328543307294 -3.2871259842779,-38.183881890064 -18.527917322981,-0.66401574803672 12.907204724511,39.840838582991 4.1194133858592,21.005007874181 16.847114173361,18.840791338731 58.895114173692,-0.68314960630459 8.3230866142388,-2.8116141732505 41.395216535759,-40.256220472758 -7.9925314961259,-11.689476378045 z"
       id="path3017-1-42-3-61"
       inkscape:connector-curvature="0"
       sodipodi:nodetypes="ccccccccccccc" />
    <path
       style="fill:#ff0000;stroke:none"
       d="m 528.82735039786,460.33295669654 67.715078740691,-1.8471259842665 13.130893700891,24.266338582868 -4.923992126023,54.67127952799 10.549842519768,3.2853543307345 3.9382795275901,-58.871870079204 -4.422933070901,-19.359814960782 -18.088334645812,-17.365074803286 -63.234354331207,0.6296456692963 -8.936291338653,2.5912204724613 -53.788216535857,58.108960630379 17.034661417457,4.6631338583044 z"
       id="path3017-1-42-44"
       inkscape:connector-curvature="0"
       sodipodi:nodetypes="ccccccccccccc" />
    <path
       style="fill:#ff0000;stroke:none"
       d="m 570.7289055163,564.51150000444 -63.068350394197,2.0040944882048 -12.229830708758,-26.328543307294 -3.2871259842779,-38.183881890064 -18.527917322981,-0.66401574803672 12.907204724511,39.84080314992 4.1194133858592,21.005043307252 16.847114173361,18.840791338731 58.895114173692,-0.68314960630459 8.3230866142388,-2.8116141732505 41.395216535759,-40.256220472758 -7.9925314961259,-11.689511811116 z"
       id="path3017-1-42-3-60"
       inkscape:connector-curvature="0"
       sodipodi:nodetypes="ccccccccccccc" />
    <path
       style="fill:#ff0000;stroke:none"
       d="m 319.31166968755,462.36667323199 113.15218464656,-3.0894094488432 21.941787401748,40.588618110556 -8.2280196851042,91.444854331429 17.628838582816,5.4951732283897 6.5808779528077,-98.470877953531 -7.3907362205306,-32.381822834901 -30.225685039608,-29.045374015977 -105.66487913469,1.05307086615 -14.932583858385,4.3341377953097 -89.880338977086,97.194826772419 28.464990945106,7.7997047244709 z"
       id="path3017-1-42-82"
       inkscape:connector-curvature="0"
       sodipodi:nodetypes="ccccccccccccc" />
    <path
       style="fill:#ff0000;stroke:none"
       d="m 389.32933464873,636.61889764281 -105.38747007957,3.3519685039634 -20.436101574964,-44.037921260189 -5.4927992126417,-63.86754330759 -30.960230315204,-1.1104724409536 21.567993307256,66.638940945407 6.8835578740699,35.13369685067 28.151599606521,31.513677165602 98.413993701562,-1.1427165354421 13.907905511921,-4.7028188976748 69.171590551726,-67.333783465097 -13.355539370184,-19.552216535587 z"
       id="path3017-1-42-3-91"
       inkscape:connector-curvature="0"
       sodipodi:nodetypes="ccccccccccccc" />
    <path
       style="fill:#ff0000;stroke:none"
       d="m 283.56420118334,693.26014961176 113.15218464656,-3.0894094488432 21.941787401748,40.588618110556 -8.2280196851042,91.444854331429 17.628838582816,5.4951732283897 6.5808779528077,-98.470877953531 -7.3907362205306,-32.381822834901 -30.225685039608,-29.045374015977 -105.66487913469,1.05307086615 -14.932583858385,4.3341377953097 -89.880338977086,97.194826772419 28.464990945106,7.7997047244709 z"
       id="path3017-1-42-82-1"
       inkscape:connector-curvature="0"
       sodipodi:nodetypes="ccccccccccccc" />
    <path
       style="fill:#ff0000;stroke:none"
       d="m 353.58188031774,867.51237402258 -105.3874842528,3.3519685039634 -20.436101574964,-44.037921260189 -5.4927992126417,-63.86754330759 -30.960230315204,-1.1108267716623 21.567993307256,66.638940945407 6.8835578740699,35.13369685067 28.151599606521,31.513677165602 98.413990158255,-1.1427165354421 13.907909055228,-4.7028188976748 69.171590551726,-67.333783465097 -13.355539370184,-19.552216535587 z"
       id="path3017-1-42-3-91-4"
       inkscape:connector-curvature="0"
       sodipodi:nodetypes="ccccccccccccc" />
    <path
       style="fill:#ff0000;stroke:none"
       d="m 397.25287795588,894.8524252039 113.15218110325,-3.0894094488432 21.941787401748,40.588618110556 -8.2280196851042,91.444854331429 17.628838582816,5.4951732283897 6.5808779528077,-98.470877953531 -7.3907362205306,-32.381822834901 -30.225685039608,-29.045374015977 -105.66488976461,1.05307086615 -14.932559055236,4.3341377953097 -89.880353150314,97.19486220549 28.464990945106,7.7996692914 z"
       id="path3017-1-42-82-17"
       inkscape:connector-curvature="0"
       sodipodi:nodetypes="ccccccccccccc" />
    <path
       style="fill:#ff0000;stroke:none"
       d="m 467.27053937376,1069.1046496147 -105.3874842528,3.3519685039634 -20.436087401736,-44.037921260189 -5.4927992126417,-63.86754330759 -30.960230315204,-1.1108267716623 21.567993307256,66.638940945407 6.8835578740699,35.13369685067 28.151585433293,31.513677165602 98.414007874791,-1.1427165354421 13.907905511921,-4.702783464604 69.171590551726,-67.333818898168 -13.355539370184,-19.552216535587 z"
       id="path3017-1-42-3-91-7"
       inkscape:connector-curvature="0"
       sodipodi:nodetypes="ccccccccccccc" />
    <path
       style="fill:#ff0000;stroke:none"
       d="m 632.83453937506,891.33629528261 113.15218110325,-3.0897637795519 21.941787401748,40.588618110556 -8.2280196851042,91.4448897645 17.628838582816,5.4951732283897 6.5808779528077,-98.470913386602 -7.3907362205306,-32.381822834901 -30.225685039608,-29.045338582906 -105.66488976461,1.05307086615 -14.932559055236,4.3341377953097 -89.880342520393,97.194826772419 28.464980315185,7.7997047244709 z"
       id="path3017-1-42-82-3"
       inkscape:connector-curvature="0"
       sodipodi:nodetypes="ccccccccccccc" />
    <path
       style="fill:#ff0000;stroke:none"
       d="m 702.85220079294,1065.5885196934 -105.3874842528,3.3519685039634 -20.43609448835,-44.03795669326 -5.4927992126417,-63.867507874519 -30.960212598669,-1.1104724409536 21.567968504107,66.638940945407 6.8835826772196,35.133661417599 28.151574803371,31.513712598673 98.414007874791,-1.1427165354421 13.907905511921,-4.702783464604 69.171590551726,-67.333783465097 -13.355539370184,-19.552251968658 z"
       id="path3017-1-42-3-91-3"
       inkscape:connector-curvature="0"
       sodipodi:nodetypes="ccccccccccccc" />
    <path
       style="fill:#ff0000;stroke:none"
       d="m 881.30877166048,873.75557481003 113.15218110325,-3.0897637795519 21.941787401748,40.588618110556 -8.2280196851042,91.4448897645 17.628838582816,5.4951732283897 6.5808779528077,-98.470913386602 -7.3907362205306,-32.381822834901 -30.225685039608,-29.045338582906 -105.66488976461,1.05307086615 -14.932594488307,4.3341377953097 -89.880342520393,97.194826772419 28.465015748256,7.7997047244709 z"
       id="path3017-1-42-82-9"
       inkscape:connector-curvature="0"
       sodipodi:nodetypes="ccccccccccccc" />
    <path
       style="fill:#ff0000;stroke:none"
       d="m 951.32643307836,1048.0077992209 -105.3874842528,3.3519685039634 -20.43609448835,-44.03795669326 -5.4927992126417,-63.867507874519 -30.96024803174,-1.1104724409536 21.568003937178,66.638940945407 6.8835826772196,35.133661417599 28.151574803371,31.513712598673 98.414007874791,-1.1427165354421 13.907905511921,-4.702783464604 69.171590551726,-67.333783465097 -13.355574803255,-19.552251968658 z"
       id="path3017-1-42-3-91-8"
       inkscape:connector-curvature="0"
       sodipodi:nodetypes="ccccccccccccc" />
    <path
       style="fill:#ff0000;stroke:none"
       d="m 966.86826378714,649.89435827283 113.15221653632,-3.0894094488432 21.941751968677,40.588618110556 -8.2279842520333,91.444854331429 17.628803149745,5.4951732283897 6.5809133858786,-98.470877953531 -7.3907716536015,-32.381822834901 -30.225685039608,-29.045374015977 -105.66485433154,1.05307086615 -14.932594488307,4.3341377953097 -89.880342520393,97.194826772419 28.465015748256,7.7997047244709 z"
       id="path3017-1-42-82-2"
       inkscape:connector-curvature="0"
       sodipodi:nodetypes="ccccccccccccc" />
    <path
       style="fill:#ff0000;stroke:none"
       d="m 1036.8859606381,824.14658268365 -105.3874842528,3.3519685039634 -20.43609448835,-44.037921260189 -5.4927992126417,-63.86754330759 -30.96024803174,-1.1108267716623 21.568003937178,66.638940945407 6.8835472441487,35.13369685067 28.151610236442,31.513677165602 98.41397244172,-1.1427165354421 13.907940944991,-4.7028188976748 69.171555118655,-67.333783465097 -13.355539370184,-19.552216535587 z"
       id="path3017-1-42-3-91-6"
       inkscape:connector-curvature="0"
       sodipodi:nodetypes="ccccccccccccc" />
    <path
       style="fill:#ff0000;stroke:none"
       d="m 999.68562992913,426.03317716871 113.15218110325,-3.0894094488432 21.941787401748,40.588618110556 -8.2280196851042,91.444854331429 17.628838582816,5.4951732283897 6.5808779528077,-98.470877953531 -7.3907362205306,-32.381822834901 -30.225685039608,-29.045374015977 -105.66488976461,1.05307086615 -14.932559055236,4.3341377953097 -89.880342520393,97.194826772419 28.464980315185,7.7997047244709 z"
       id="path3017-1-42-82-8"
       inkscape:connector-curvature="0"
       sodipodi:nodetypes="ccccccccccccc" />
    <path
       style="fill:#ff0000;stroke:none"
       d="m 1069.703291347,600.28540157953 -105.3874842528,3.3519685039634 -20.43609448835,-44.037921260189 -5.4927992126417,-63.86754330759 -30.960212598669,-1.1104724409536 21.567968504107,66.638940945407 6.8835826772196,35.13369685067 28.151574803371,31.513677165602 98.414007874791,-1.1427165354421 13.907905511921,-4.7028188976748 69.171590551726,-67.333783465097 -13.355539370184,-19.552216535587 z"
       id="path3017-1-42-3-91-0"
       inkscape:connector-curvature="0"
       sodipodi:nodetypes="ccccccccccccc" />
    <path
       style="fill:#ff0000;stroke:none"
       d="m 823.87838977027,243.19363464758 113.15218110325,-3.0895511811267 21.941787401748,40.588621653863 -8.2280196851042,91.44486496135 17.628838582816,5.4951732283897 6.5808779528077,-98.470888583453 -7.3907362205306,-32.381822834901 -30.225685039608,-29.045356299441 -105.66485433154,1.0531771653626 -14.932594488307,4.3341519685381 -89.880342520393,97.194833859033 28.464980315185,7.7997011811638 z"
       id="path3017-1-42-82-0"
       inkscape:connector-curvature="0"
       sodipodi:nodetypes="ccccccccccccc" />
    <path
       style="fill:#ff0000;stroke:none"
       d="m 893.89608662121,417.44586614502 -105.3874842528,3.3519685039634 -20.43609448835,-44.037921260189 -5.4927992126417,-63.86754330759 -30.96024803174,-1.110649606308 21.568003937178,66.638944488714 6.8835472441487,35.13369685067 28.151610236442,31.513677165602 98.41397244172,-1.1427165354421 13.907940944991,-4.7028188976748 69.171555118655,-67.333783465097 -13.355539370184,-19.552227165508 z"
       id="path3017-1-42-3-91-9"
       inkscape:connector-curvature="0"
       sodipodi:nodetypes="ccccccccccccc" />
    <path
       style="fill:#ff0000;stroke:none"
       d="m 576.57624803604,231.47315433253 113.15218110325,-3.0895511811267 21.941787401748,40.588621653863 -8.2280196851042,91.44486496135 17.628838582816,5.4951732283897 6.5808779528077,-98.470888583453 -7.3907362205306,-32.381822834901 -30.225685039608,-29.045356299441 -105.66488976461,1.0531771653626 -14.932559055236,4.3341519685381 -89.880342520393,97.194833859033 28.464980315185,7.7997011811638 z"
       id="path3017-1-42-82-35"
       inkscape:connector-curvature="0"
       sodipodi:nodetypes="ccccccccccccc" />
    <path
       style="fill:#ff0000;stroke:none"
       d="m 646.59390945391,405.72538582997 -105.3874842528,3.3519685039634 -20.43609448835,-44.037921260189 -5.4927992126417,-63.86754330759 -30.960212598669,-1.110649606308 21.567968504107,66.638944488714 6.8835826772196,35.13369685067 28.151574803371,31.513677165602 98.414007874791,-1.1427165354421 13.907905511921,-4.7028188976748 69.171590551726,-67.333783465097 -13.355539370184,-19.552227165508 z"
       id="path3017-1-42-3-91-1"
       inkscape:connector-curvature="0"
       sodipodi:nodetypes="ccccccccccccc" />
    <path
       style="fill:#ff0000;stroke:none"
       d="M 329.27406732543,234.98928425382 442.42625197199,231.89972598608 464.36803937374,272.48834763994 456.14001968863,363.93321260129 473.76885827145,369.42838582968 480.34973622425,270.95749724623 472.95900000372,238.57567441133 442.73331496412,209.53031811189 337.06843582943,210.58348464733 322.13585197104,214.91763661587 232.25551299395,312.1124704749 260.72050393906,319.91217165606 z"
       id="path3017-1-42-82-6"
       inkscape:connector-curvature="0"
       sodipodi:nodetypes="ccccccccccccc" />
    <path
       style="fill:#ff0000;stroke:none"
       d="m 399.29173228661,409.24151575125 -105.38747007957,3.3519685039634 -20.436101574964,-44.037921260189 -5.4927992126417,-63.86754330759 -30.960230315204,-1.110649606308 21.567993307256,66.638944488714 6.8835578740699,35.13369685067 28.151599606521,31.513677165602 98.413993701562,-1.1427165354421 13.907905511921,-4.7028188976748 69.171590551726,-67.333783465097 -13.355539370184,-19.552227165508 z"
       id="path3017-1-42-3-91-40"
       inkscape:connector-curvature="0"
       sodipodi:nodetypes="ccccccccccccc" />
    <path
       style="fill:#ff0000;stroke:none"
       d="m 817.15120866785,462.67703149971 67.715078740691,-1.8471259842665 13.130893700891,24.266338582868 -4.923992126023,54.67127952799 10.549842519768,3.2853543307345 3.9382795275901,-58.871870079204 -4.422933070901,-19.359814960782 -18.088334645812,-17.365074803286 -63.234354331207,0.6296456692963 -8.936291338653,2.5912204724613 -53.788216535857,58.108960630379 17.034661417457,4.6631338583044 z"
       id="path3017-1-42-4"
       inkscape:connector-curvature="0"
       sodipodi:nodetypes="ccccccccccccc" />
    <path
       style="fill:#ff0000;stroke:none"
       d="m 859.05276378629,566.85557480761 -63.068350394197,2.0040944882048 -12.229830708758,-26.328543307294 -3.2871259842779,-38.183881890064 -18.527917322981,-0.66401574803672 12.907204724511,39.84080314992 4.1194133858592,21.005043307252 16.847114173361,18.840791338731 58.895114173692,-0.68314960630459 8.3230866142388,-2.8116141732505 41.395216535759,-40.256220472758 -7.9925314961259,-11.689511811116 z"
       id="path3017-1-42-3-86"
       inkscape:connector-curvature="0"
       sodipodi:nodetypes="ccccccccccccc" />
    <path
       style="fill:#ff0000;stroke:none"
       d="m 1200.4109645764,408.76281496385 67.715078740691,-1.8471259842665 13.130893700891,24.266338582868 -4.923992126023,54.67127952799 10.549842519768,3.2853543307345 3.9382795275901,-58.871870079204 -4.422933070901,-19.359814960782 -18.088334645812,-17.365074803286 -63.234354331207,0.6296456692963 -8.936291338653,2.5912204724613 -53.788216535857,58.108960630379 17.034661417457,4.6631338583044 z"
       id="path3017-1-42-4-6"
       inkscape:connector-curvature="0"
       sodipodi:nodetypes="ccccccccccccc" />
    <path
       style="fill:#ff0000;stroke:none"
       d="m 1242.3125196948,512.94135827176 -63.068350394197,2.0040944882048 -12.229830708758,-26.328543307294 -3.2871259842779,-38.183881890064 -18.527917322981,-0.66401574803672 12.907204724511,39.84080314992 4.1194133858592,21.005043307252 16.847114173361,18.840791338731 58.895114173692,-0.68314960630459 8.3230866142388,-2.8116141732505 41.395216535759,-40.256220472758 -7.9925314961259,-11.689511811116 z"
       id="path3017-1-42-3-86-1"
       inkscape:connector-curvature="0"
       sodipodi:nodetypes="ccccccccccccc" />
    <path
       style="fill:#ff0000;stroke:none"
       d="m 1147.6687677256,572.84953937459 67.715078740691,-1.8471259842665 13.130893700891,24.266338582868 -4.923992126023,54.67127952799 10.549842519768,3.2853543307345 3.9382795275901,-58.871870079204 -4.422933070901,-19.359814960782 -18.088334645812,-17.365074803286 -63.234354331207,0.6296456692963 -8.936291338653,2.5912204724613 -53.788216535857,58.108960630379 17.034661417457,4.6631338583044 z"
       id="path3017-1-42-4-8"
       inkscape:connector-curvature="0"
       sodipodi:nodetypes="ccccccccccccc" />
    <path
       style="fill:#ff0000;stroke:none"
       d="m 1189.570322844,677.0280826825 -63.068350394197,2.0040944882048 -12.229830708758,-26.328543307294 -3.2871259842779,-38.183881890064 -18.527917322981,-0.66401574803672 12.907204724511,39.84080314992 4.1194133858592,21.005043307252 16.847114173361,18.840791338731 58.895114173692,-0.68314960630459 8.3230866142388,-2.8116141732505 41.395216535759,-40.256220472758 -7.9925314961259,-11.689511811116 z"
       id="path3017-1-42-3-86-9"
       inkscape:connector-curvature="0"
       sodipodi:nodetypes="ccccccccccccc" />
    <path
       style="fill:#ff0000;stroke:none"
       d="m 1018.74348426,254.05248189176 67.715078740691,-1.8471259842665 13.130893700891,24.266338582868 -4.923992126023,54.67127952799 10.549842519768,3.2853543307345 3.9382795275901,-58.871870079204 -4.422933070901,-19.359814960782 -18.088334645812,-17.365074803286 -63.234354331207,0.6296456692963 -8.936291338653,2.5912204724613 -53.788216535857,58.108960630379 17.034661417457,4.6631338583044 z"
       id="path3017-1-42-4-84"
       inkscape:connector-curvature="0"
       sodipodi:nodetypes="ccccccccccccc" />
    <path
       style="fill:#ff0000;stroke:none"
       d="m 1060.6450393784,358.2310393729 -63.068350394197,2.0040944882048 -12.229830708758,-26.328557480522 -3.2871259842779,-38.183881890064 -18.527917322981,-0.66401574803672 12.907204724511,39.84080314992 4.1194133858592,21.00505748048 16.847114173361,18.840791338731 58.895114173692,-0.68314960630459 8.3230866142388,-2.8116141732505 41.395216535759,-40.256234645986 -7.9925314961259,-11.689511811116 z"
       id="path3017-1-42-3-86-14"
       inkscape:connector-curvature="0"
       sodipodi:nodetypes="ccccccccccccc" />
    <path
       style="fill:#ff0000;stroke:none"
       d="m 1180.4861338676,254.05246417523 67.715078740691,-1.8471259842665 13.130893700891,24.266338582868 -4.923992126023,54.671297244525 10.549842519768,3.2853543307345 3.9382795275901,-58.871887795739 -4.422933070901,-19.359814960782 -18.088334645812,-17.365074803286 -63.234354331207,0.6296456692963 -8.936291338653,2.5912204724613 -53.788216535857,58.108978346914 17.034661417457,4.6631338583044 z"
       id="path3017-1-42-4-3"
       inkscape:connector-curvature="0"
       sodipodi:nodetypes="ccccccccccccc" />
    <path
       style="fill:#ff0000;stroke:none"
       d="m 1222.387688986,358.2310393729 -63.068350394197,2.0040944882048 -12.229830708758,-26.328557480522 -3.2871259842779,-38.183881890064 -18.527917322981,-0.66401574803672 12.907204724511,39.84080314992 4.1194133858592,21.00505748048 16.847114173361,18.840791338731 58.895114173692,-0.68314960630459 8.3230866142388,-2.8116141732505 41.395216535759,-40.256234645986 -7.9925314961259,-11.689511811116 z"
       id="path3017-1-42-3-86-98"
       inkscape:connector-curvature="0"
       sodipodi:nodetypes="ccccccccccccc" />
    <path
       style="fill:#ff0000;stroke:none"
       d="m 164.32039488318,386.49390945186 67.715078740691,-1.8471259842665 13.130893700891,24.266338582868 -4.923992126023,54.67127952799 10.549842519768,3.2853543307345 3.9382795275901,-58.871870079204 -4.422933070901,-19.359814960782 -18.088334645812,-17.365074803286 -63.234354331207,0.6296456692963 -8.936291338653,2.5912204724613 -53.788216535857,58.108960630379 17.034661417457,4.6631338583044 z"
       id="path3017-1-42-4-80"
       inkscape:connector-curvature="0"
       sodipodi:nodetypes="ccccccccccccc" />
    <path
       style="fill:#ff0000;stroke:none"
       d="m 206.22195000162,490.67245275977 -63.068350394197,2.0040944882048 -12.229830708758,-26.328543307294 -3.2871259842779,-38.183881890064 -18.527917322981,-0.66401574803672 12.907204724511,39.84080314992 4.1194133858592,21.005043307252 16.847114173361,18.840791338731 58.895114173692,-0.68314960630459 8.3230866142388,-2.8116141732505 41.395216535759,-40.256220472758 -7.9925314961259,-11.689511811116 z"
       id="path3017-1-42-3-86-8"
       inkscape:connector-curvature="0"
       sodipodi:nodetypes="ccccccccccccc" />
    <path
       style="fill:#ff0000;stroke:none"
       d="m 139.70736850504,574.02159449271 67.715078740691,-1.8471259842665 13.130893700891,24.266338582868 -4.923992126023,54.67127952799 10.549842519768,3.2853543307345 3.9382795275901,-58.871870079204 -4.422933070901,-19.359814960782 -18.088334645812,-17.365074803286 -63.234354331207,0.6296456692963 -8.936291338653,2.5912204724613 -53.788216535857,58.108960630379 17.034661417457,4.6631338583044 z"
       id="path3017-1-42-4-7"
       inkscape:connector-curvature="0"
       sodipodi:nodetypes="ccccccccccccc" />
    <path
       style="fill:#ff0000;stroke:none"
       d="m 181.60892362348,678.20013780062 -63.068350394197,2.0040944882048 -12.229830708758,-26.328543307294 -3.2871259842779,-38.183881890064 -18.527917322981,-0.66401574803672 12.907204724511,39.84080314992 4.1194133858592,21.005043307252 16.847114173361,18.840791338731 58.895114173692,-0.68314960630459 8.3230866142388,-2.8116141732505 41.395216535759,-40.256220472758 -7.9925314961259,-11.689511811116 z"
       id="path3017-1-42-3-86-7"
       inkscape:connector-curvature="0"
       sodipodi:nodetypes="ccccccccccccc" />
    <path
       style="fill:#ff0000;stroke:none"
       d="m 200.65386968662,930.32422441677 67.715078740691,-1.8471259842665 13.130893700891,24.266338582868 -4.923992126023,54.67127952799 10.549842519768,3.2853543307345 3.9382795275901,-58.871870079204 -4.422933070901,-19.359814960782 -18.088334645812,-17.365074803286 -63.234354331207,0.6296456692963 -8.936291338653,2.5912204724613 -53.788216535857,58.108960630379 17.034661417457,4.6631338583044 z"
       id="path3017-1-42-4-83"
       inkscape:connector-curvature="0"
       sodipodi:nodetypes="ccccccccccccc" />
    <path
       style="fill:#ff0000;stroke:none"
       d="m 242.55542480506,1034.5027677247 -63.068350394197,2.0040944882048 -12.229830708758,-26.328543307294 -3.2871259842779,-38.183881890064 -18.527917322981,-0.66401574803672 12.907204724511,39.84080314992 4.1194133858592,21.005043307252 16.847114173361,18.840791338731 58.895114173692,-0.68314960630459 8.3230866142388,-2.8116141732505 41.395216535759,-40.256220472758 -7.9925314961259,-11.689511811116 z"
       id="path3017-1-42-3-86-83"
       inkscape:connector-curvature="0"
       sodipodi:nodetypes="ccccccccccccc" />
    <path
       style="fill:#ff0000;stroke:none"
       d="m 102.20182441025,745.14064961217 67.715078740691,-1.8471259842665 13.130893700891,24.266338582868 -4.923992126023,54.67127952799 10.549842519768,3.2853543307345 3.9382795275901,-58.871870079204 -4.422933070901,-19.359814960782 -18.088334645812,-17.365074803286 -63.234354331207,0.6296456692963 -8.936291338653,2.5912204724613 -53.788216535857,58.108960630379 17.034661417457,4.6631338583044 z"
       id="path3017-1-42-4-71"
       inkscape:connector-curvature="0"
       sodipodi:nodetypes="ccccccccccccc" />
    <path
       style="fill:#ff0000;stroke:none"
       d="m 144.10337952869,849.31919292007 -63.068350394197,2.0040944882048 -12.229830708758,-26.328543307294 -3.2871259842779,-38.183881890064 -18.527917322981,-0.66401574803672 12.907204724511,39.84080314992 4.1194133858592,21.005043307252 16.847114173361,18.840791338731 58.895114173692,-0.68314960630459 8.3230866142388,-2.8116141732505 41.395216535759,-40.256220472758 -7.9925314961259,-11.689511811116 z"
       id="path3017-1-42-3-86-0"
       inkscape:connector-curvature="0"
       sodipodi:nodetypes="ccccccccccccc" />
    <path
       style="fill:#ff0000;stroke:none"
       d="m 593.29002756373,265.77294803359 67.715078740691,-1.8471259842665 13.130893700891,24.266338582868 -4.923992126023,54.67127952799 10.549842519768,3.2853543307345 3.9382795275901,-58.871870079204 -4.422933070901,-19.359814960782 -18.088334645812,-17.365074803286 -63.234354331207,0.6296456692963 -8.936291338653,2.5912204724613 -53.788216535857,58.108960630379 17.034661417457,4.6631338583044 z"
       id="path3017-1-42-4-73"
       inkscape:connector-curvature="0"
       sodipodi:nodetypes="ccccccccccccc" />
    <path
       style="fill:#ff0000;stroke:none"
       d="m 635.19158268217,369.95148425488 -63.068350394197,2.0040944882048 -12.229830708758,-26.32853622068 -3.2871259842779,-38.183881890064 -18.527917322981,-0.66401574803672 12.907204724511,39.84080314992 4.1194133858592,21.005036220638 16.847114173361,18.840791338731 58.895114173692,-0.68314960630459 8.3230866142388,-2.8116141732505 41.395216535759,-40.256213386144 -7.9925314961259,-11.689511811116 z"
       id="path3017-1-42-3-86-4"
       inkscape:connector-curvature="0"
       sodipodi:nodetypes="ccccccccccccc" />
    <path
       style="fill:#ff0000;stroke:none"
       d="m 749.1724015807,109.89054212685 67.715078740691,-1.8471259842665 13.130893700891,24.266338582868 -4.923992126023,54.67127952799 10.549842519768,3.2853543307345 3.9382795275901,-58.871870079204 -4.422933070901,-19.359814960782 -18.088334645812,-17.365074803286 -63.234354331207,0.6296456692963 -8.936291338653,2.5912204724613 -53.788216535857,58.108960630379 17.034661417457,4.6631338583044 z"
       id="path3017-1-42-4-5"
       inkscape:connector-curvature="0"
       sodipodi:nodetypes="ccccccccccccc" />
    <path
       style="fill:#ff0000;stroke:none"
       d="m 791.07395669914,214.06908543476 -63.068350394197,2.0040944882048 -12.229830708758,-26.328543307294 -3.2871259842779,-38.183881890064 -18.527917322981,-0.66401574803672 12.907204724511,39.84080314992 4.1194133858592,21.005043307252 16.847114173361,18.840791338731 58.895114173692,-0.68314960630459 8.3230866142388,-2.8116141732505 41.395216535759,-40.256220472758 -7.9925314961259,-11.689511811116 z"
       id="path3017-1-42-3-86-10"
       inkscape:connector-curvature="0"
       sodipodi:nodetypes="ccccccccccccc" />
    <path
       style="fill:#ff00ff;stroke:none"
       d="m 281.88173622269,691.22529921804 -60.331574409924,76.172952756505 5.542908661461,66.685500000525 23.615202756091,39.284574803459 106.23736063076,-0.93578740158217 56.713925197297,-60.907181102842 8.2447086614822,-79.503377953382 -24.235440945073,-43.572330709005 z"
       id="path3017-1-4"
       inkscape:connector-curvature="0"
       sodipodi:nodetypes="ccccccccc" />
    <path
       sodipodi:type="arc"
       style="fill:#ffffff;stroke:none"
       id="path3865"
       sodipodi:cx="8.2460546"
       sodipodi:cy="15.533863"
       sodipodi:rx="0.66743523"
       sodipodi:ry="0.21530168"
       d="m 8.9134899,15.533863 a 0.66743523,0.21530168 0 1 1 -1.3348705,0 0.66743523,0.21530168 0 1 1 1.3348705,0 z"
       transform="matrix(26.544201732492,0,0,69.9439748037,195.3478311039,-600.77030315434)" />
    <path
       style="fill:none;stroke:#00ffff;stroke-width:5.3149609842938;stroke-linecap:butt;stroke-linejoin:miter;stroke-miterlimit:4;stroke-opacity:1;stroke-dasharray:none"
       d="m 1335.9986574908,-390.03200787709 -78.432448819515,215.10074409618 33.606744094753,295.32045472673 39.14231102393,201.61676693072 114.21088582767,-84.471300000665 -22.988551181283,455.68552323193 -108.04422047329,-91.145799213316 95.626877953509,337.35252756171 -122.3038700797,-9.094393700859 -7.1315078740719,-181.90101968647 -90.092551181812,47.03807480352 -172.16539370214,-62.087988189465 -176.86169291478,67.699771654076 -94.808444882636,183.70296850538"
       id="path3017-7"
       inkscape:connector-curvature="0"
       sodipodi:nodetypes="cccccccccccccc" />
    <path
       style="fill:none;stroke:#000000;stroke-width:5.3149609842938;stroke-linecap:butt;stroke-linejoin:miter;stroke-miterlimit:4;stroke-opacity:1;stroke-dasharray:none"
       d="m 710.19846850953,683.34987402113 29.817992126219,13.824744094597 61.449094488673,71.231208661978"
       id="path3017-9"
       inkscape:connector-curvature="0"
       sodipodi:nodetypes="ccc" />
    <path
       style="fill:none;stroke:#000000;stroke-width:5.3149609842938;stroke-linecap:butt;stroke-linejoin:miter;stroke-miterlimit:4;stroke-opacity:1;stroke-dasharray:none"
       d="m 675.39043701319,806.83557874651 29.817992126219,13.824744094597 51.503952756311,-8.3300669291994"
       id="path3017-9-9"
       inkscape:connector-curvature="0"
       sodipodi:nodetypes="ccc" />
    <path
       style="fill:none;stroke:#000000;stroke-width:5.3149609842938;stroke-linecap:butt;stroke-linejoin:miter;stroke-miterlimit:4;stroke-opacity:1;stroke-dasharray:none"
       d="m 393.61092519995,805.98561024257 97.776602362975,30.400015748271 73.994492126567,32.754082677423 47.323771653916,92.078326772379 3.1166929134104,-129.84742913488"
       id="path3017-9-9-6"
       inkscape:connector-curvature="0"
       sodipodi:nodetypes="ccccc" />
    <path
       style="fill:none;stroke:#00ffff;stroke-width:5.3149609842938;stroke-linecap:butt;stroke-linejoin:miter;stroke-miterlimit:4;stroke-opacity:1;stroke-dasharray:none"
       d="M 496.32175984643,824.50739764429 460.07355118473,939.77475591291 255.05527323035,949.48494095236 142.41518504049,821.50058268363 158.36025472566,664.52371654067 306.0877925221,624.30342520177"
       id="path3017-7-8"
       inkscape:connector-curvature="0"
       sodipodi:nodetypes="cccccc" />
    <path
       style="fill:none;stroke:#000000;stroke-width:5.3149609842938;stroke-linecap:butt;stroke-linejoin:miter;stroke-miterlimit:4;stroke-opacity:1;stroke-dasharray:none"
       d="m 189.73519370228,481.13163779906 87.250730315648,84.569811024288 71.854320473007,41.966716535764 174.16091693051,67.916161417858"
       id="path3017-3"
       inkscape:connector-curvature="0"
       sodipodi:nodetypes="cccc" />
    <path
       style="fill:none;stroke:#000000;stroke-width:5.3149609842938;stroke-linecap:butt;stroke-linejoin:miter;stroke-miterlimit:4;stroke-opacity:1;stroke-dasharray:none"
       d="m 698.59580315511,491.0768149645 29.817992126219,13.824744094597 107.85986220557,19.847870078896"
       id="path3017-4"
       inkscape:connector-curvature="0"
       sodipodi:nodetypes="ccc" />
    <path
       style="fill:none;stroke:#000000;stroke-width:5.3149609842938;stroke-linecap:butt;stroke-linejoin:miter;stroke-miterlimit:4;stroke-opacity:1;stroke-dasharray:none"
       d="m 1059.9365551265,494.39186220862 -49.743283464959,28.742492126211 -104.30351574885,52.998413386244"
       id="path3017-8"
       inkscape:connector-curvature="0"
       sodipodi:nodetypes="ccc" />
    <path
       style="fill:none;stroke:#000000;stroke-width:5.3149609842938;stroke-linecap:butt;stroke-linejoin:miter;stroke-miterlimit:4;stroke-opacity:1;stroke-dasharray:none"
       d="m 754.95171260437,-360.89174409733 9.9276732284246,456.38428819257 8.4082677166016,26.47798582698"
       id="path3017-49"
       inkscape:connector-curvature="0"
       sodipodi:nodetypes="ccc" />
    <path
       style="fill:none;stroke:#000000;stroke-width:5.3149609842938;stroke-linecap:butt;stroke-linejoin:miter;stroke-miterlimit:4;stroke-opacity:1;stroke-dasharray:none"
       d="M 754.95171260437,140.50997716646 619.01705905999,152.67720472561 439.68490157827,184.45753346602 373.82378740452,260.37398976583"
       id="path3017-8-9"
       inkscape:connector-curvature="0"
       sodipodi:nodetypes="cccc" />
    <path
       style="fill:none;stroke:#000000;stroke-width:5.3149609842938;stroke-linecap:butt;stroke-linejoin:miter;stroke-miterlimit:4;stroke-opacity:1;stroke-dasharray:none"
       d="m 418.473850397,346.04325000272 120.98193307182,-7.7230913386435 66.421700787925,28.135498819119"
       id="path3017-8-2"
       inkscape:connector-curvature="0"
       sodipodi:nodetypes="ccc" />
    <path
       style="fill:none;stroke:#00ffff;stroke-width:5.3149609842938;stroke-linecap:butt;stroke-linejoin:miter;stroke-miterlimit:4;stroke-opacity:1;stroke-dasharray:none"
       d="M 1009.8356102442,454.67064567287 818.58989764424,299.35128897874 648.07235433581,285.65142165579"
       id="path3017-7-8-5"
       inkscape:connector-curvature="0"
       sodipodi:nodetypes="ccc" />
    <path
       style="fill:#ff00ff;stroke:none"
       d="m 1362.4218425304,206.06606929296 -60.331570866617,76.172952756505 5.5429370079177,66.685500000525 23.615185039556,39.284560630231 106.23734645753,-0.93578740158217 56.713925197297,-60.907166929613 8.2447086614822,-79.503377953382 -24.235440945073,-43.572330709005 z"
       id="path3017-1-4-3"
       inkscape:connector-curvature="0"
       sodipodi:nodetypes="ccccccccc" />
    <path
       style="fill:none;stroke:#000000;stroke-width:5.3149609842938;stroke-linecap:butt;stroke-linejoin:miter;stroke-miterlimit:4;stroke-opacity:1;stroke-dasharray:none"
       d="m 358.80289370361,398.80183464881 14.900208661535,75.153259843111 -147.39919015864,-21.590326771824"
       id="path3017-8-2-3"
       inkscape:connector-curvature="0"
       sodipodi:nodetypes="ccc" />
    <path
       style="fill:none;stroke:#00ffff;stroke-width:5.3149609842938;stroke-linecap:butt;stroke-linejoin:miter;stroke-miterlimit:4;stroke-opacity:1;stroke-dasharray:none"
       d="m 593.60570079208,1033.3247598507 -47.040909449189,-246.48328346651 16.782944882022,-128.06922047345"
       id="path3017-7-8-5-3"
       inkscape:connector-curvature="0"
       sodipodi:nodetypes="ccc" />
    <path
       style="fill:none;stroke:#000000;stroke-width:5.3149609842938;stroke-linecap:butt;stroke-linejoin:miter;stroke-miterlimit:4;stroke-opacity:1;stroke-dasharray:none"
       d="m 378.69321260141,497.70694488581 29.817992126219,13.824744094597 51.503952756311,99.409145670074"
       id="path3017-74"
       inkscape:connector-curvature="0"
       sodipodi:nodetypes="ccc" />
    <path
       style="fill:#ff00ff;stroke:none"
       d="m -29.900334330944,-92.288689370805 -60.331560945357,76.172952756505 5.5428909449255,66.685500000525 23.615220472627,39.284574803459 106.23734645753,-0.93578740158217 L 178.40948031637,81.83013307151 328.3029070892,123.97034409546 551.8281259886,63.666428740659 650.51872441457,42.929107086952 669.07729134385,24.345483307278 681.18473622584,-12.556234133957 558.97001575243,-69.559937008422 420.99806693245,-87.478267323523 296.02819134091,-43.192651181442 215.70229488359,-59.002880315425 l -105.58009842603,7.5108720473032 -24.235440945073,-43.572330709005 z"
       id="path3017-1-4-38"
       inkscape:connector-curvature="0"
       sodipodi:nodetypes="cccccccccccccccccc" />
    <path
       style="fill:#ff00ff;stroke:none"
       d="m 9.44356783472,1157.0035748123 -60.331559173703,76.172952756505 5.5428909449255,66.685500000525 23.615219055304,39.284574803459 106.23734787485,-0.93578740158217 133.24591771758,-7.0884212598983 149.89342677283,42.140232283796 1070.5212283549,-53.6738385831 98.690598425974,-20.737311023785 18.55856692928,-18.583618110383 12.107444881985,-36.901736220763 -122.2147204734,-57.003696850843 -137.97194881998,-17.918326771795 -195.70680708816,-1.9913385826928 -228.40965354511,41.370696850719 -211.88487401742,5.2535551181516 -139.25824015858,-19.587401574957 -196.70630315116,12.609921259942 -80.32590354394,-15.810236220597 -105.58009842603,7.5108543307678 -24.235440945073,-43.572330709005 z"
       id="path3017-1-4-38-0"
       inkscape:connector-curvature="0"
       sodipodi:nodetypes="cccccccccccccccccccccc" />
  </g>
</svg>
