<?xml version="1.0" encoding="UTF-8" standalone="no"?>
<!-- Created with Inkscape (http://www.inkscape.org/) -->

<svg
   xmlns:dc="http://purl.org/dc/elements/1.1/"
   xmlns:cc="http://creativecommons.org/ns#"
   xmlns:rdf="http://www.w3.org/1999/02/22-rdf-syntax-ns#"
   xmlns:svg="http://www.w3.org/2000/svg"
   xmlns="http://www.w3.org/2000/svg"
   xmlns:sodipodi="http://sodipodi.sourceforge.net/DTD/sodipodi-0.dtd"
   xmlns:inkscape="http://www.inkscape.org/namespaces/inkscape"
   width="744.09448819"
   height="1052.3622047"
   id="svg2"
   version="1.1"
   inkscape:version="0.48.4 r9939"
   sodipodi:docname="level6.svg">
  <defs
     id="defs4" />
  <sodipodi:namedview
     id="base"
     pagecolor="#ffffff"
     bordercolor="#666666"
     borderopacity="1.0"
     inkscape:pageopacity="0.0"
     inkscape:pageshadow="2"
     inkscape:zoom="0.46881258"
     inkscape:cx="1393.3596"
     inkscape:cy="781.93446"
     inkscape:document-units="px"
     inkscape:current-layer="layer1"
     showgrid="false"
     inkscape:snap-global="false"
     inkscape:snap-page="true"
     inkscape:window-width="1920"
     inkscape:window-height="1017"
     inkscape:window-x="-8"
     inkscape:window-y="-8"
     inkscape:window-maximized="1" />
  <metadata
     id="metadata7">
    <rdf:RDF>
      <cc:Work
         rdf:about="">
        <dc:format>image/svg+xml</dc:format>
        <dc:type
           rdf:resource="http://purl.org/dc/dcmitype/StillImage" />
        <dc:title />
      </cc:Work>
    </rdf:RDF>
  </metadata>
  <g
     inkscape:label="Vrstva 1"
     inkscape:groupmode="layer"
     id="layer1">
    <rect
       style="fill:#0000ff;fill-opacity:1;stroke:none"
       id="rect2985"
       width="1354.4790944989"
       height="708.66141732841"
       x="0"
       y="0" />
    <path
       sodipodi:type="arc"
       style="fill:#00ff00;fill-opacity:1;stroke:none"
       id="path3013"
       sodipodi:cx="3.8054054"
       sodipodi:cy="5.5989327"
       sodipodi:rx="0.79567569"
       sodipodi:ry="1.1070271"
       d="m 4.6010811,5.5989327 a 0.79567569,1.1070271 0 1 1 -1.5913514,0 0.79567569,1.1070271 0 1 1 1.5913514,0 z"
       transform="matrix(17.812820551321,0,0,12.802964881991,-7.648667362265,444.29672834996)" />
    <path
       style="fill:none;stroke:#000000;stroke-width:5.3149609842938;stroke-linecap:butt;stroke-linejoin:miter;stroke-miterlimit:4;stroke-opacity:1;stroke-dasharray:none"
       d="m 680.43316535969,517.52646850801 117.16012204817,7.6241338583277 3.5110629921536,100.57861417402"
       id="path3017"
       inkscape:connector-curvature="0"
       sodipodi:nodetypes="ccc" />
    <path
       style="fill:none;stroke:#00ff00;stroke-width:5.3149609842938;stroke-linecap:butt;stroke-linejoin:miter;stroke-miterlimit:4;stroke-opacity:1;stroke-dasharray:none"
       d="M 2.4540806693107,703.68225591105 1352.5161378059,702.285236226"
       id="path3813"
       inkscape:connector-curvature="0"
       sodipodi:nodetypes="cc" />
    <path
       style="fill:#ff00ff;stroke:none"
       d="m 478.5811653581,612.36882283947 -44.664377953108,44.778330709014 -29.927515748267,58.028137795733 100.10391732362,5.7254881890215 102.88725590632,-0.8454330708728 11.127578740245,-7.2724960630494 6.4037125984756,-11.78989370088 -0.14527559055233,-6.4216062992632 -5.837811023668,-8.3362677166011 -30.259665354569,-0.71610236221036 -64.271940945388,-93.56616141806 -25.707685039572,0.61901574803637 z"
       id="path3017-1-4"
       inkscape:connector-curvature="0"
       sodipodi:nodetypes="ccccccccccccc" />
    <path
       style="fill:#ff0000;stroke:none"
       d="m -5.9772022441416,568.55324409897 -2.1039236220638,14.89142125996 18.046676693055,-3.2279527559309 245.81692913579,108.51377952841 135.08858267823,0 3.3218503937269,0 0,-1.1072834645756 14.394685039483,-5.5364173228782 89.689960630627,-90.797244095203 25.981972441149,-0.44433070866492 60.43354724457,92.014511811748 122.65834252065,3.4550787401847 30.491681102602,-184.74126378098 -9.8039055118882,2.1348425197018 -29.065606299441,170.23383071 -106.59646063076,-2.541968503957 -58.621464567391,-91.278000000719 -41.01452362237,1.201889763789 -7.7509842520295,8.8582677166052 -91.904527559779,85.260826772325 -135.08858267823,0 0,-1.1072834645756 L 22.145669291513,569.14370079188 z"
       id="path3017-1-42"
       inkscape:connector-curvature="0"
       sodipodi:nodetypes="cccccccccccccccccccccccc" />
    <path
       style="fill:#ff0000;stroke:none"
       d="m 728.43920079314,515.52719291745 -5.2894133858684,13.478385826878 638.04178346959,16.826952756038 -1.8814960630069,-13.583267716642 z"
       id="path3017-1-42-1"
       inkscape:connector-curvature="0"
       sodipodi:nodetypes="ccccc" />
    <path
       style="fill:#ff0000;stroke:none"
       d="m 1441.1986299326,521.24056299623 -0.092125984252694,-11.072444881977 -246.72022441139,-106.44409842603 -135.08379921366,1.1352755905601 -3.3218503937269,0.027956692913606 0.010488188976461,1.1072834645756 -14.347629921373,5.6572086614619 -88.923720473141,91.547787402296 -25.977330708866,0.66259842520207 -61.204677165836,-91.5033897645 -122.68307480412,-2.4239763779718 -28.938047244322,184.99099606445 9.7856220473211,-2.2170472441119 13.462582677271,-75.99646063052 167.5486417336,13.972641732393 13.804228346565,-6.5726574803667 41.002937008197,-0.36566929134146 6.4953425197362,-19.551614173382 91.184740158198,-86.030185040047 135.08379921366,-1.1352755905601 0.010488188976461,1.1072834645756 236.72710630108,103.20622441026 z"
       id="path3017-1-42-0"
       inkscape:connector-curvature="0"
       sodipodi:nodetypes="ccccccccccccccccccccccc" />
    <path
       style="fill:#ff00ff;stroke:none"
       d="m 870.99686221158,676.53152362737 -10.708122047328,6.9456614173775 -6.4459133858775,19.107177165505 21.27610629938,-0.30472440945122 29.914299212834,2.5338188976577 -8.8830000000699,-17.62203543321 -13.752566929242,-9.9201614174009 z"
       id="path3017-1-4-9"
       inkscape:connector-curvature="0"
       sodipodi:nodetypes="cccccccc" />
    <path
       style="fill:#ff00ff;stroke:none"
       d="m 1054.3426299296,418.96722047574 -87.178393701474,81.387602362846 -9.2609645670021,24.961712598622 117.2275866151,2.7729921260061 36.75437007903,3.8783622047549 4.0419212598743,-10.81534251977 -4.8152834646048,-15.33270472453 -8.41188188983,-22.364362204901 3.0192519685277,-23.098074803331 5.1686574803557,-27.287362204939 -12.310370078837,-19.757125984408 -25.707685039572,0.61901574803637 z"
       id="path3017-1-4-4"
       inkscape:connector-curvature="0"
       sodipodi:nodetypes="ccccccccccccc" />
    <path
       style="fill:#ff00ff;stroke:none"
       d="m 1204.3225984347,496.31906693304 3.1638188976627,19.978511811181 -5.1276614173632,22.599779527737 100.10391732362,5.7254881890215 102.88725590632,-0.8454330708728 11.127578740245,-7.2724960630494 6.4037125984756,-11.78989370088 -0.14527559055233,-6.4216062992632 -5.837811023668,-8.3362677166011 -180.23963385969,-75.115629921851 -14.672267716651,3.8617795275895 -12.717283464667,30.733122047486 z"
       id="path3017-1-4-8"
       inkscape:connector-curvature="0"
       sodipodi:nodetypes="ccccccccccccc" />
    <path
       style="fill:none;stroke:#000000;stroke-width:5.3149609842938;stroke-linecap:butt;stroke-linejoin:miter;stroke-miterlimit:4;stroke-opacity:1;stroke-dasharray:none"
       d="m 1150.5502913476,339.73217008142 3.7894251968802,228.46079055298 15.075814960749,83.077228347111"
       id="path3017-8"
       inkscape:connector-curvature="0"
       sodipodi:nodetypes="ccc" />
    <path
       style="fill:none;stroke:#00ff00;stroke-width:5.3149609842938;stroke-linecap:butt;stroke-linejoin:miter;stroke-miterlimit:4;stroke-opacity:1;stroke-dasharray:none"
       d="m 491.85116929521,579.72603543764 41.652283464895,-1.8177165354474"
       id="path3813-9-2"
       inkscape:connector-curvature="0"
       sodipodi:nodetypes="cc" />
    <path
       style="fill:none;stroke:#00ff00;stroke-width:5.3149609842938;stroke-linecap:butt;stroke-linejoin:miter;stroke-miterlimit:4;stroke-opacity:1;stroke-dasharray:none"
       d="m 742.83076772238,409.17249212921 123.90509055216,0.89610236221178"
       id="path3813-9-2-4"
       inkscape:connector-curvature="0"
       sodipodi:nodetypes="cc" />
    <path
       style="fill:#ff0000;stroke:none"
       d="m 655.81118504453,3.9164414173537 1.3911023622157,18.488709921405 736.57814173808,60.249760866616 -1.8814960630069,-13.583267716642 z"
       id="path3017-1-42-1-5"
       inkscape:connector-curvature="0"
       sodipodi:nodetypes="ccccc" />
    <path
       style="fill:#ff00ff;stroke:none"
       d="m 505.934007878,354.59043307366 -52.106137795686,7.0677992126541 -9.2609645670021,24.961712598622 47.083039370449,11.958555118204 37.589421260139,-17.833039370219 52.475066929547,5.8857519685503 77.020015748638,-1.9718503937163 68.413074803688,-1.4881889763897 25.415078740358,13.110732283568 5.8559173228808,15.048850393819 28.843547244322,0.72850393701361 -7.4749606299801,-31.271704724656 -49.620330709052,-23.219751968687 -55.790291339022,-3.070629921284 -59.90842913433,-20.592138189139 -25.707685039572,0.61901574803637 z"
       id="path3017-1-4-4-5"
       inkscape:connector-curvature="0"
       sodipodi:nodetypes="ccccccccccccccccc" />
    <path
       style="fill:#ff0000;stroke:none"
       d="m 563.91023622491,292.06942441175 -3.6193110236505,10.138170472521 160.72320472568,43.74758267751 122.42065748128,72.450783071437 -1.8814960630069,-13.583267716642 -112.98412204813,-65.896596850913 z"
       id="path3017-1-42-1-1"
       inkscape:connector-curvature="0"
       sodipodi:nodetypes="ccccccc" />
    <path
       style="fill:#ff0000;stroke:none"
       d="M 532.31120079159,287.92896378179 533.79148819318,298.52518110471 369.85163386118,301.85397638033 259.28110630125,344.57740157752 256.87619291541,334.11638976641 253.62122598625,326.11020236477 258.51694252172,322.13454449073 264.01705512019,332.13240708923 l 99.542125985036,-38.457106299515 z"
       id="path3017-1-42-1-1-7"
       inkscape:connector-curvature="0"
       sodipodi:nodetypes="cccccccccc" />
    <path
       style="fill:none;stroke:#000000;stroke-width:5.3149609842938;stroke-linecap:butt;stroke-linejoin:miter;stroke-miterlimit:4;stroke-opacity:1;stroke-dasharray:none"
       d="m 378.03242126282,-408.76735039692 3.7894251968802,567.39191102809 15.075814960749,83.077228347111"
       id="path3017-8-1"
       inkscape:connector-curvature="0"
       sodipodi:nodetypes="ccc" />
    <path
       style="fill:#ff0000;stroke:none"
       d="m 1179.7625905605,274.95082204941 -27.000814960843,18.488710630067 27.114555118324,18.695958661565 -5.9807125984723,-13.075830708764 53.246515748451,-2.153905511828 -0.11692913385919,-5.104792913426 -0.095669291339336,-4.3032047244433 -52.025173228756,0.90772440945597 z"
       id="path3017-1-42-1-1-1"
       inkscape:connector-curvature="0"
       sodipodi:nodetypes="ccccccccc" />
  </g>
</svg>
