<?xml version="1.0" encoding="UTF-8" standalone="no"?>
<!-- Created with Inkscape (http://www.inkscape.org/) -->

<svg
   xmlns:dc="http://purl.org/dc/elements/1.1/"
   xmlns:cc="http://creativecommons.org/ns#"
   xmlns:rdf="http://www.w3.org/1999/02/22-rdf-syntax-ns#"
   xmlns:svg="http://www.w3.org/2000/svg"
   xmlns="http://www.w3.org/2000/svg"
   xmlns:sodipodi="http://sodipodi.sourceforge.net/DTD/sodipodi-0.dtd"
   xmlns:inkscape="http://www.inkscape.org/namespaces/inkscape"
   width="744.09448819"
   height="1052.3622047"
   id="svg2"
   version="1.1"
   inkscape:version="0.48.4 r9939"
   sodipodi:docname="level12.svg">
  <defs
     id="defs4" />
  <sodipodi:namedview
     id="base"
     pagecolor="#ffffff"
     bordercolor="#666666"
     borderopacity="1.0"
     inkscape:pageopacity="0.0"
     inkscape:pageshadow="2"
     inkscape:zoom="0.65666546"
     inkscape:cx="852.44679"
     inkscape:cy="990.73384"
     inkscape:document-units="px"
     inkscape:current-layer="layer1"
     showgrid="false"
     inkscape:snap-global="false"
     inkscape:snap-page="true"
     inkscape:window-width="1920"
     inkscape:window-height="1017"
     inkscape:window-x="-8"
     inkscape:window-y="-8"
     inkscape:window-maximized="1" />
  <metadata
     id="metadata7">
    <rdf:RDF>
      <cc:Work
         rdf:about="">
        <dc:format>image/svg+xml</dc:format>
        <dc:type
           rdf:resource="http://purl.org/dc/dcmitype/StillImage" />
        <dc:title />
      </cc:Work>
    </rdf:RDF>
  </metadata>
  <g
     inkscape:label="Vrstva 1"
     inkscape:groupmode="layer"
     id="layer1">
    <rect
       style="fill:#0000ff;fill-opacity:1;stroke:none"
       id="rect2985"
       width="1442.0357362318"
       height="572.13900000451"
       x="0"
       y="0" />
    <path
       sodipodi:type="arc"
       style="fill:#00ff00;fill-opacity:1;stroke:none"
       id="path3013"
       sodipodi:cx="3.8054054"
       sodipodi:cy="5.5989327"
       sodipodi:rx="0.79567569"
       sodipodi:ry="1.1070271"
       d="m 4.6010811,5.5989327 a 0.79567569,1.1070271 0 1 1 -1.5913514,0 0.79567569,1.1070271 0 1 1 1.5913514,0 z"
       transform="matrix(17.812820551321,0,0,12.802964881991,1207.612240167,51.475088976783)" />
    <path
       style="fill:none;stroke:#00ffff;stroke-width:5.3149609842938;stroke-linecap:butt;stroke-linejoin:miter;stroke-miterlimit:4;stroke-opacity:1;stroke-dasharray:none"
       d="m 172.37044842655,-716.30146063556 -7.6830448819503,717.49943965132 84.010960630583,94.505795788146 170.12549409583,3.2179251968757 77.62822441006,-0.57298818898089 33.634700787666,4.7252480315333 547.34035039801,-25.658124803352 60.759283465045,8.8813452756605 96.318248032254,1.5794645669416"
       id="path3017-7"
       inkscape:connector-curvature="0"
       sodipodi:nodetypes="ccccccccc" />
    <path
       style="fill:#ff00ff;stroke:none"
       d="m 1447.1203464681,-21.333430275759 -127.49853543407,-13.434010157586 -164.22874015877,-9.8399221654318 -697.30277953305,3.5721035433352 -144.15610039484,4.4004933071213 -168.68187637928,11.242227401663 -41.755613386156,16.575098031627 -8.0290346457325,15.691981181226 2.357078740176,20.368211811184 49.049585433457,14.605411889879 48.890724803535,2.9028188976607 358.07166496345,10.375696063074 183.49657086759,-2.7071220472654 243.71011417515,0.15307086614294 373.50049606593,-13.368514960735 74.170204724993,-16.414647519814 26.360220472649,-21.917417598598 z"
       id="path3017-1-4-2"
       inkscape:connector-curvature="0"
       sodipodi:nodetypes="cccccccccccccccccc" />
    <path
       style="fill:none;stroke:#000000;stroke-width:5.3149609842938;stroke-linecap:butt;stroke-linejoin:miter;stroke-miterlimit:4;stroke-opacity:1;stroke-dasharray:none"
       d="M 1237.2937441042,172.4276692927 1313.6529330812,145.29344527673 1375.8908031604,128.11475196951"
       id="path3017-6"
       inkscape:connector-curvature="0"
       sodipodi:nodetypes="ccc" />
    <path
       style="fill:none;stroke:#000000;stroke-width:5.3149609842938;stroke-linecap:butt;stroke-linejoin:miter;stroke-miterlimit:4;stroke-opacity:1;stroke-dasharray:none"
       d="M 217.66577244266,167.74283267849 281.0567444904,183.50302322979 339.77804882157,166.92564685171"
       id="path3017-6-8"
       inkscape:connector-curvature="0"
       sodipodi:nodetypes="ccc" />
    <path
       style="fill:#ff00ff;stroke:none"
       d="M 1456.3942086729,471.982641736 1329.2715118215,457.94682283825 1146.3583464657,399.86153149921 888.70517717235,356.92603937289 625.82371654036,344.9028401602 398.61520866456,394.68532677476 225.67598504115,418.81577953086 37.803047244392,480.46337008252 l -40.314981614491,41.361094488515 -8.9425031103066,29.674417323068 2.6252433071073,30.261791338821 L 1435.8938740271,576.12607087068 1465.2531496178,537.36916535856 z"
       id="path3017-1-4-2-5"
       inkscape:connector-curvature="0"
       sodipodi:nodetypes="cccccccccccccc" />
    <path
       style="fill:none;stroke:#000000;stroke-width:5.3149609842938;stroke-linecap:butt;stroke-linejoin:miter;stroke-miterlimit:4;stroke-opacity:1;stroke-dasharray:none"
       d="M 18.153407834789,378.34568504235 104.89283149689,359.08324016031 233.65944212782,319.15744724661"
       id="path3017-61"
       inkscape:connector-curvature="0"
       sodipodi:nodetypes="ccc" />
    <path
       style="fill:#ff0000;stroke:none"
       d="M 5.2636659449233,30.641697283706 5.016362244134,53.936539370503 5.4018159449244,73.075974803725 11.421301535523,92.944009843252 21.031231535599,91.631147244816 22.531897913563,59.706520866612 17.873195315101,29.928753425433 10.356460511893,18.501757441091 z"
       id="path3017-1-8"
       inkscape:connector-curvature="0"
       sodipodi:nodetypes="ccccccccc" />
    <path
       style="fill:#ff0000;stroke:none"
       d="M 130.05055630024,254.1512976398 88.60884094558,252.54598110435 81.625712599068,259.22472519889 93.388443307822,264.72009685248 108.19240157566,266.3117539391 121.9784208671,262.11992244301 z"
       id="path3017-1-8-2"
       inkscape:connector-curvature="0"
       sodipodi:nodetypes="ccccccc" />
    <path
       style="fill:#ff0000;stroke:none"
       d="m 809.4846614237,160.87037952883 -144.78356693027,30.490281496303 55.75014566973,46.747792913754 -4.2003070866472,336.62268779793 34.464330708933,5.615539370123 6.0152952756379,-347.90540669565 z"
       id="path3017-1-7"
       inkscape:connector-curvature="0"
       sodipodi:nodetypes="ccccccc" />
    <path
       style="fill:none;stroke:#000000;stroke-width:5.3149609842938;stroke-linecap:butt;stroke-linejoin:miter;stroke-miterlimit:4;stroke-opacity:1;stroke-dasharray:none"
       d="m 554.27885433507,433.86473622389 63.266881890262,16.251129921388 58.848023622511,-16.121622047371"
       id="path3017-6-8-9"
       inkscape:connector-curvature="0"
       sodipodi:nodetypes="ccc" />
    <path
       style="fill:none;stroke:#000000;stroke-width:5.3149609842938;stroke-linecap:butt;stroke-linejoin:miter;stroke-miterlimit:4;stroke-opacity:1;stroke-dasharray:none"
       d="m 771.14437795883,429.01823622385 62.340165354822,19.506649606453 59.604129921729,-13.051559055221"
       id="path3017-6-8-5"
       inkscape:connector-curvature="0"
       sodipodi:nodetypes="ccc" />
    <path
       sodipodi:type="arc"
       style="fill:#ffffff;stroke:none"
       id="path3865-4"
       sodipodi:cx="8.2460546"
       sodipodi:cy="15.533863"
       sodipodi:rx="0.66743523"
       sodipodi:ry="0.21530168"
       d="m 8.9134899,15.533863 a 0.66743523,0.21530168 0 1 1 -1.3348705,0 0.66743523,0.21530168 0 1 1 1.3348705,0 z"
       transform="matrix(26.544201732492,0,0,69.9439748037,392.55214960939,-688.94918504479)" />
    <path
       sodipodi:type="arc"
       style="fill:#ffffff;stroke:none"
       id="path3865-3"
       sodipodi:cx="8.2460546"
       sodipodi:cy="15.533863"
       sodipodi:rx="0.66743523"
       sodipodi:ry="0.21530168"
       d="m 8.9134899,15.533863 a 0.66743523,0.21530168 0 1 1 -1.3348705,0 0.66743523,0.21530168 0 1 1 1.3348705,0 z"
       transform="matrix(26.544201732492,0,0,69.9439748037,593.50574409916,-694.99959449366)" />
    <path
       style="fill:none;stroke:#00ee00;stroke-width:5.3149606299631;stroke-linecap:butt;stroke-linejoin:miter;stroke-miterlimit:4;stroke-opacity:1;stroke-dasharray:none"
       d="M 807.77948032132,158.26623307211 664.27905118633,188.47977165503"
       id="path3813-1"
       inkscape:connector-curvature="0"
       sodipodi:nodetypes="cc" />
    <path
       style="fill:#ff0000;stroke:none"
       d="M 61.297277953239,163.9873063005 26.499265157689,165.43966889894 33.493432677429,177.87795590691 50.511957874413,180.57689645811 62.083410236709,174.17049803287 z"
       id="path3017-1-8-2-2"
       inkscape:connector-curvature="0"
       sodipodi:nodetypes="cccccc" />
    <path
       style="fill:none;stroke:#000000;stroke-width:5.3149609842938;stroke-linecap:butt;stroke-linejoin:miter;stroke-miterlimit:4;stroke-opacity:1;stroke-dasharray:none"
       d="M 30.938707204968,416.74489370407 117.67812874108,397.48244882203 246.44473937202,357.55667716817"
       id="path3017-61-0"
       inkscape:connector-curvature="0"
       sodipodi:nodetypes="ccc" />
  </g>
</svg>
