<?xml version="1.0" encoding="UTF-8" standalone="no"?>
<!-- Created with Inkscape (http://www.inkscape.org/) -->

<svg
   xmlns:osb="http://www.openswatchbook.org/uri/2009/osb"
   xmlns:dc="http://purl.org/dc/elements/1.1/"
   xmlns:cc="http://creativecommons.org/ns#"
   xmlns:rdf="http://www.w3.org/1999/02/22-rdf-syntax-ns#"
   xmlns:svg="http://www.w3.org/2000/svg"
   xmlns="http://www.w3.org/2000/svg"
   xmlns:sodipodi="http://sodipodi.sourceforge.net/DTD/sodipodi-0.dtd"
   xmlns:inkscape="http://www.inkscape.org/namespaces/inkscape"
   width="744.09448819"
   height="1052.3622047"
   id="svg2"
   version="1.1"
   inkscape:version="0.48.4 r9939"
   sodipodi:docname="level9.svg">
  <defs
     id="defs4">
    <linearGradient
       id="linearGradient6526"
       osb:paint="solid">
      <stop
         style="stop-color:#ff00ff;stop-opacity:1;"
         offset="0"
         id="stop6528" />
    </linearGradient>
  </defs>
  <sodipodi:namedview
     id="base"
     pagecolor="#ffffff"
     bordercolor="#666666"
     borderopacity="1.0"
     inkscape:pageopacity="0.0"
     inkscape:pageshadow="2"
     inkscape:zoom="3.3275614"
     inkscape:cx="311.12698"
     inkscape:cy="287.08535"
     inkscape:document-units="px"
     inkscape:current-layer="layer1"
     showgrid="false"
     inkscape:snap-global="false"
     inkscape:snap-page="true"
     inkscape:window-width="1920"
     inkscape:window-height="1017"
     inkscape:window-x="-8"
     inkscape:window-y="-8"
     inkscape:window-maximized="1" />
  <metadata
     id="metadata7">
    <rdf:RDF>
      <cc:Work
         rdf:about="">
        <dc:format>image/svg+xml</dc:format>
        <dc:type
           rdf:resource="http://purl.org/dc/dcmitype/StillImage" />
        <dc:title />
      </cc:Work>
    </rdf:RDF>
  </metadata>
  <g
     inkscape:label="Vrstva 1"
     inkscape:groupmode="layer"
     id="layer1">
    <rect
       style="fill:#0000ff;fill-opacity:1;stroke:none"
       id="rect2985"
       width="893.34751181806"
       height="788.92168110857"
       x="0"
       y="0" />
    <path
       sodipodi:type="arc"
       style="fill:#00ff00;fill-opacity:1;stroke:none"
       id="path3013"
       sodipodi:cx="3.8054054"
       sodipodi:cy="5.5989327"
       sodipodi:rx="0.79567569"
       sodipodi:ry="1.1070271"
       d="m 4.6010811,5.5989327 a 0.79567569,1.1070271 0 1 1 -1.5913514,0 0.79567569,1.1070271 0 1 1 1.5913514,0 z"
       transform="matrix(17.812820551321,0,0,12.802964881991,210.26362677331,668.0762716588)" />
    <path
       style="fill:none;stroke:#000000;stroke-width:5.3149609842938;stroke-linecap:butt;stroke-linejoin:miter;stroke-miterlimit:4;stroke-opacity:1;stroke-dasharray:none"
       d="m 572.91682677616,-265.7200039391 6.8009881890299,209.26915511976 29.152877952985,84.412058386491 23.302771653727,13.293993189081 73.373279528137,10.322383464648 66.835877953282,-10.816674803235 39.765259842833,0.58684251968966 15.364381889885,9.733308661494 13.946173228456,20.445810236381 3.8628425197155,35.188529527836 -7.1376377953318,359.36260157763"
       id="path3017"
       inkscape:connector-curvature="0"
       sodipodi:nodetypes="ccccccccccc" />
    <path
       style="fill:#ff0000;stroke:#ff0000;stroke-width:5.3149609842938;stroke-miterlimit:4;stroke-opacity:1;stroke-dasharray:none"
       d="m 343.06255630191,418.21178740487 64.498262598933,382.56679134159 159.67541338708,2.4604724409643 11.382023622137,-401.69501575119 z"
       id="path3017-1-95"
       inkscape:connector-curvature="0"
       sodipodi:nodetypes="ccccc" />
    <path
       style="fill:#ff0000;stroke:none"
       d="m 163.8779527572,-35.433070866421 -164.98523622177,23.252952756089 -11.072834645756,418.55314960959 -7.7509842520295,394.19291338893 149.48326771771,-6.6437007874539 L 157.954577954,476.295625988 153.63558070987,499.38484252362 146.71505905627,492.74114173616 127.3375984262,515.99409449225 120.4170767726,510.45750000402 141.1786417334,486.65090551564 131.21309055221,481.39146850773 158.06471456817,475.30144488563 163.8779527572,418.55314960959 174.95078740295,100.76279527638 z"
       id="path3017-1-95-4"
       inkscape:connector-curvature="0"
       sodipodi:nodetypes="cccccccccccccccc" />
    <path
       style="fill:none;stroke:#00ff00;stroke-width:7.08661413;stroke-linecap:butt;stroke-linejoin:miter;stroke-miterlimit:4;stroke-opacity:1;stroke-dasharray:none"
       d="m 167.29911,418.57394 -33.39418,363.7143"
       id="path3813"
       inkscape:connector-curvature="0"
       sodipodi:nodetypes="cc" />
    <path
       style="fill:none;stroke:#00ff00;stroke-width:7.08661413;stroke-linecap:butt;stroke-linejoin:miter;stroke-miterlimit:4;stroke-opacity:1;stroke-dasharray:none"
       d="M 399.11433,782.46171 337.049,417.86128"
       id="path3813-1"
       inkscape:connector-curvature="0"
       sodipodi:nodetypes="cc" />
    <path
       style="fill:none;stroke:#00ff00;stroke-width:7.08661413;stroke-linecap:butt;stroke-linejoin:miter;stroke-miterlimit:4;stroke-opacity:1;stroke-dasharray:none"
       d="m 130.35016,785.51024 273.73895,0.26488"
       id="path3813-2"
       inkscape:connector-curvature="0"
       sodipodi:nodetypes="cc" />
    <path
       style="fill:#ff0000;stroke:none"
       d="m 184.18485118255,665.09645669815 -20.60112401591,4.5637440945241 -5.3757779527982,14.643000000115 9.877794094566,4.5827007874377 27.110689370292,1.9952362204882 17.425750393838,-3.0398031496302 15.528614173351,-6.3913110236724 -0.8397283464633,-11.000622047331 -18.873496063141,-5.5748622047683 z"
       id="path3017-1-3"
       inkscape:connector-curvature="0"
       sodipodi:nodetypes="cccccccccc" />
    <path
       style="fill:#ff0000;stroke:none"
       d="m 306.20931732525,604.73979921736 -20.60112401591,4.5637440945241 -5.3757779527982,14.643000000115 9.877794094566,4.5827007874377 27.110689370292,1.9952362204882 17.425750393838,-3.0398031496302 15.528614173351,-6.3913110236724 -0.8397283464633,-11.000622047331 -18.873496063141,-5.5748622047683 z"
       id="path3017-1-3-3"
       inkscape:connector-curvature="0"
       sodipodi:nodetypes="cccccccccc" />
    <path
       style="fill:#ff0000;stroke:none"
       d="m 206.97848149769,547.82798031927 -25.102413779725,4.5637440945241 -4.679475590588,5.7718700787856 -0.69629527559603,8.8711299213297 14.379083858381,4.5827007874377 27.110689370292,1.9952362204882 17.425750393838,-3.0398031496302 15.528614173351,-6.3913110236724 -0.8397283464633,-11.000622047331 -18.873496063141,-5.5748622047683 z"
       id="path3017-1-3-4"
       inkscape:connector-curvature="0"
       sodipodi:nodetypes="ccccccccccc" />
    <path
       style="fill:none;stroke:#00ff00;stroke-width:5.3149609842938;stroke-linecap:butt;stroke-linejoin:miter;stroke-miterlimit:4;stroke-opacity:1;stroke-dasharray:none"
       d="M 339.60640748299,413.5436220505 581.08641732741,397.511433074"
       id="path3813-1-1"
       inkscape:connector-curvature="0"
       sodipodi:nodetypes="cc" />
    <path
       sodipodi:type="arc"
       style="fill:#ffff00;fill-opacity:1;stroke:none"
       id="path3015-2-3"
       sodipodi:cx="8.6486483"
       sodipodi:cy="8.2973108"
       sodipodi:rx="0.79567569"
       sodipodi:ry="0.55351353"
       d="m 9.444324,8.2973108 a 0.79567569,0.55351353 0 1 1 -1.5913514,0 0.79567569,0.55351353 0 1 1 1.5913514,0 z"
       transform="matrix(13.359615236326,0,0,19.204446968655,75.50149252028,268.52770984463)" />
    <path
       style="fill:#ff0000;stroke:none"
       d="m 158.34281456818,-18.311188464711 -3.8744326771959,40.499577283783 390.31384252276,-1.4667661417438 3.512834645697,-0.30359055118349 1.3733858267825,-2.3954562992315 -2.2638188976556,-3.2444185039626 -31.652716535682,-30.31493563016 z"
       id="path3017-1-7"
       inkscape:connector-curvature="0"
       sodipodi:nodetypes="cccccccc" />
    <path
       style="fill:#ff0000;stroke:none"
       d="m 672.96667323365,-23.008993937189 -30.558720472682,37.071763228638 -0.94889763780275,2.8741748031722 3.0171259842757,2.0310590551341 8.2679881890415,2.4594909449013 262.89000000207,-2.5754066929337 -1.1377559055208,-39.086684291646 z"
       id="path3017-1-7-4"
       inkscape:connector-curvature="0"
       sodipodi:nodetypes="cccccccc" />
    <path
       style="fill:#ff0000;stroke:none"
       d="m 668.39339764306,206.23720748194 21.393637795444,133.33008897743 5.4570118110666,134.07921141838 -10.911578740243,131.879480316 -28.675062992352,124.6757598435 125.11877952854,2.402716535452 -18.534082677311,-120.76536614268 -9.1927204725133,-133.51758661522 9.3077007874749,-139.2705992137 26.434559055326,-131.76495708765 -113.13478346546,-1.5473622047366 -0.14173228346568,-21.560258267886 -7.4746417323423,-0.18248031496207 z"
       id="path3017-1-95-2"
       inkscape:connector-curvature="0"
       sodipodi:nodetypes="cccccccccccccc" />
    <path
       sodipodi:type="arc"
       style="fill:#ffff00;fill-opacity:1;stroke:none"
       id="path3015-2-7-9"
       sodipodi:cx="8.6486483"
       sodipodi:cy="8.2973108"
       sodipodi:rx="0.79567569"
       sodipodi:ry="0.55351353"
       d="m 9.444324,8.2973108 a 0.79567569,0.55351353 0 1 1 -1.5913514,0 0.79567569,0.55351353 0 1 1 1.5913514,0 z"
       transform="matrix(13.359615236326,0,0,19.204446968655,719.61253937574,451.12471653899)" />
    <path
       style="fill:#ff0000;stroke:none"
       d="m 477.06608268092,120.46126535528 5.6641535433517,9.687259842596 8.4890905512479,5.1416574803554 74.307720473026,1.7309055118247 6.6676889764305,-5.1574960630327 2.3169685039553,-10.496657480398 -3.8758818897943,-2.5791732283668 -1.5576377952879,9.4402204725153 -7.6784881890368,1.2738188976478 -13.127952756009,0.24094488189166 -19.78341732299,3.2006692913638 -17.84901968518,-3.5822834645951 -16.497283464697,-0.40606299212918 -7.6910314961236,-2.5699606299415 -3.2509842519941,-6.0399921260318 z"
       id="path3017-1-48"
       inkscape:connector-curvature="0"
       sodipodi:nodetypes="cccccccccccccccc" />
    <path
       style="fill:none;stroke:#00ff00;stroke-width:5.3149609842938;stroke-linecap:butt;stroke-linejoin:miter;stroke-miterlimit:4;stroke-opacity:1;stroke-dasharray:none"
       d="m 677.42815748565,201.9718027575 113.88755905601,1.3019527559158"
       id="path3813-1-1-8"
       inkscape:connector-curvature="0"
       sodipodi:nodetypes="cc" />
    <path
       style="fill:#ff00ff;stroke:none"
       d="M 853.84197638468,16.261250669419 813.5509960694,10.888703504023 781.20765354946,19.129039370229 710.14290945441,15.097114133977 l -38.591149606603,0.65126692913899 -13.301893700892,20.147083228505 -1.5487795275713,24.704319685234 18.718972441092,21.846242126156 42.224811023955,21.792135826943 45.605444882249,6.3285342520183 54.808653543739,2.6638582677375 21.799948819069,-5.6400200787846 16.790952756038,-17.964290551323 7.6541456693516,-18.464743700933 -0.85074803150276,-23.624280708847 z"
       id="path3017-1-2-7-3"
       inkscape:connector-curvature="0"
       sodipodi:nodetypes="cccccccccccccccc" />
    <path
       style="fill:#ff00ff;stroke:none"
       d="m 570.34342913835,153.73413779649 -12.322559055215,-1.2513897637894 -6.3786259843022,17.837248819038 15.462566929256,17.89044448833 25.180405512009,15.540803149729 39.441082677476,7.0996641732842 21.820287401747,0.13677165354438 0.81106299213237,-16.246098425325 -9.0574015748745,-8.0937212599062 -39.047917323142,-21.43955551198 z"
       id="path3017-1-7-4-6"
       inkscape:connector-curvature="0"
       sodipodi:nodetypes="ccccccccccc" />
    <path
       style="fill:none;stroke:#000000;stroke-width:5.3149609842938;stroke-linecap:butt;stroke-linejoin:miter;stroke-miterlimit:4;stroke-opacity:1;stroke-dasharray:none"
       d="m 267.61573346667,36.385214173515 118.86382559149,1.6545826771784 46.390960630287,13.580645669398 16.977401574937,18.476014960775 21.049228346622,35.432674016027"
       id="path3017-5"
       inkscape:connector-curvature="0"
       sodipodi:nodetypes="ccccc" />
    <path
       style="fill:#ff00ff;stroke:none"
       d="M 303.66877323074,21.797435197022 273.35763779743,16.178746889891 252.72034015947,30.120831141969 266.61697086824,48.01127598463 301.19299015985,57.288337795727 312.02823189222,41.305861417648 z"
       id="path3017-1-7-4-6-0"
       inkscape:connector-curvature="0"
       sodipodi:nodetypes="ccccccc" />
    <path
       style="fill:#ff0000;stroke:none"
       d="M 643.72461024129,173.35453819034 622.18417323325,161.94158149734 627.3688818947,158.11306299337 610.61655118591,158.06046614298 620.12384646158,172.07766850529 620.49461811512,165.29972244225 641.74960630427,177.07663700927 z"
       id="path3822-6"
       inkscape:connector-curvature="0"
       sodipodi:nodetypes="cccccccc" />
    <path
       style="fill:#ff0000;stroke:none"
       d="m 506.77037008273,39.89508307118 13.063110236323,-8.3582762599083 0.64736220472951,6.4124727165859 8.5922007874692,-14.38114358279 -16.906216535566,1.0251141732364 5.6402716535877,3.776903149636 -13.230566929238,7.9269105118734 z"
       id="path3822-6-1"
       inkscape:connector-curvature="0"
       sodipodi:nodetypes="cccccccc" />
    <path
       style="fill:#ff0000;stroke:none"
       d="m 588.20112992589,403.9010078772 -0.30472440945122,24.375224409641 -5.7749881890219,-2.8615748031721 7.6099251969103,14.924232283582 8.1216141732923,-14.863039370196 -6.1978818898126,2.7683858267935 0.7593307086674,-24.287740157672 z"
       id="path3822-6-4"
       inkscape:connector-curvature="0"
       sodipodi:nodetypes="cccccccc" />
  </g>
</svg>
