<?xml version="1.0" encoding="UTF-8" standalone="no"?>
<!-- Created with Inkscape (http://www.inkscape.org/) -->

<svg
   xmlns:dc="http://purl.org/dc/elements/1.1/"
   xmlns:cc="http://creativecommons.org/ns#"
   xmlns:rdf="http://www.w3.org/1999/02/22-rdf-syntax-ns#"
   xmlns:svg="http://www.w3.org/2000/svg"
   xmlns="http://www.w3.org/2000/svg"
   xmlns:sodipodi="http://sodipodi.sourceforge.net/DTD/sodipodi-0.dtd"
   xmlns:inkscape="http://www.inkscape.org/namespaces/inkscape"
   sodipodi:docname="level18.svg"
   inkscape:version="0.48.4 r9939"
   version="1.1"
   id="svg2"
   height="1052.3622047"
   width="744.09448819">
  <sodipodi:namedview
     id="base"
     pagecolor="#ffffff"
     bordercolor="#666666"
     borderopacity="1.0"
     inkscape:pageopacity="0.0"
     inkscape:pageshadow="2"
     inkscape:zoom="0.35355339"
     inkscape:cx="1394.8099"
     inkscape:cy="603.54233"
     inkscape:document-units="px"
     inkscape:current-layer="layer1"
     showgrid="false"
     inkscape:snap-global="false"
     inkscape:snap-page="true"
     inkscape:window-width="1920"
     inkscape:window-height="1017"
     inkscape:window-x="-8"
     inkscape:window-y="-8"
     inkscape:window-maximized="1" />
  <defs
     id="defs4" />
  <metadata
     id="metadata7">
    <rdf:RDF>
      <cc:Work
         rdf:about="">
        <dc:format>image/svg+xml</dc:format>
        <dc:type
           rdf:resource="http://purl.org/dc/dcmitype/StillImage" />
        <dc:title />
      </cc:Work>
    </rdf:RDF>
  </metadata>
  <g
     inkscape:label="Vrstva 1"
     inkscape:groupmode="layer"
     id="layer1">
    <rect
       style="fill:#0000ff;fill-opacity:1;stroke:none"
       id="rect2985"
       width="3408.8778425465"
       height="1243.6293543405"
       x="0"
       y="0" />
    <path
       sodipodi:type="arc"
       style="fill:#00ff00;fill-opacity:1;stroke:none"
       id="path3013"
       sodipodi:cx="3.8054054"
       sodipodi:cy="5.5989327"
       sodipodi:rx="0.79567569"
       sodipodi:ry="1.1070271"
       d="m 4.6010811,5.5989327 a 0.79567569,1.1070271 0 1 1 -1.5913514,0 0.79567569,1.1070271 0 1 1 1.5913514,0 z"
       transform="matrix(17.812820551321,0,0,12.802964881991,14.214753070978,380.23667716835)" />
    <path
       style="fill:none;stroke:#000000;stroke-width:5.3149609842938;stroke-linecap:butt;stroke-linejoin:miter;stroke-miterlimit:4;stroke-opacity:1;stroke-dasharray:none"
       d="m 3276.1744370337,-84.563766142398 3.7894251968802,567.39190394148 15.075814960749,83.077228347111"
       id="path3017-8-1"
       inkscape:connector-curvature="0"
       sodipodi:nodetypes="ccc" />
    <path
       sodipodi:nodetypes="ccccccccccccccccccccccccccccccccc"
       inkscape:connector-curvature="0"
       style="fill:#ff0000;fill-opacity:1;stroke:none"
       d="m 1277.7823700888,989.13592914165 -4.1627480315288,41.293275590876 -11.938854330803,38.460720472744 -18.891106299361,34.804204724684 -25.019362204921,30.323728346695 -30.323763779766,25.019397637992 -34.804204724684,18.89107086629 -38.460685039673,11.938854330803 -41.293311023947,4.1625354331036 -41.293275590876,-4.1625354331036 -38.460720472744,-11.938854330803 -34.804169291613,-18.89107086629 -30.323763779766,-25.019397637992 -25.019397637992,-30.323728346695 -18.89107086629,-34.804204724684 -11.938889763874,-38.460720472744 -4.162712598458,-41.293275590876 4.162712598458,-41.293275590876 11.938889763874,-38.460720472744 18.89107086629,-34.804204724684 25.019397637992,-30.323763779766 30.323763779766,-25.019397637992 34.804169291613,-18.891106299361 38.460720472744,-11.938854330803 41.293275590876,-4.1625354331036 41.293311023947,4.1625354331036 38.460685039673,11.938854330803 34.804204724684,18.891106299361 30.323763779766,25.019397637992 25.019362204921,30.323763779766 18.891106299361,34.804204724684 11.938854330803,38.460720472744 z"
       id="path3180" />
    <path
       sodipodi:nodetypes="ccccccccccccccccccccccccccccccccc"
       inkscape:connector-curvature="0"
       style="fill:#ff0000;fill-opacity:1;stroke:none"
       d="m 1662.667937021,929.23883858999 -4.1627480315288,41.293275590876 -11.938854330803,38.460720472744 -18.891106299361,34.804204724684 -25.019362204921,30.323728346695 -30.323763779766,25.019397637992 -34.804204724684,18.89107086629 -38.460720472744,11.938854330803 -41.293275590876,4.1625354331036 -41.293275590876,-4.1625354331036 -38.460720472744,-11.938854330803 -34.804204724684,-18.89107086629 -30.323728346695,-25.019397637992 -25.019397637992,-30.323728346695 -18.891106299361,-34.804204724684 -11.938854330803,-38.460720472744 -4.162712598458,-41.293275590876 4.162712598458,-41.293275590876 11.938854330803,-38.460720472744 18.891106299361,-34.804204724684 25.019397637992,-30.323763779766 30.323728346695,-25.019397637992 34.804204724684,-18.891106299361 38.460720472744,-11.938854330803 41.293275590876,-4.1625354331036 41.293275590876,4.1625354331036 38.460720472744,11.938854330803 34.804204724684,18.891106299361 30.323763779766,25.019397637992 25.019362204921,30.323763779766 18.891106299361,34.804204724684 11.938854330803,38.460720472744 z"
       id="path3180-4" />
    <path
       sodipodi:nodetypes="ccccccccccccccccccccccccccccccccc"
       inkscape:connector-curvature="0"
       style="fill:#ff0000;fill-opacity:1;stroke:none"
       d="m 2030.6345315121,804.31809449452 -4.1627480315288,41.293275590876 -11.938854330803,38.460720472744 -18.891106299361,34.804204724684 -25.019362204921,30.323728346695 -30.323763779766,25.019397637992 -34.804204724684,18.89107086629 -38.460685039673,11.938854330803 -41.293275590876,4.1625354331036 -41.293311023947,-4.1625354331036 -38.460685039673,-11.938854330803 -34.804204724684,-18.89107086629 -30.323763779766,-25.019397637992 -25.019362204921,-30.323728346695 -18.891106299361,-34.804204724684 -11.938854330803,-38.460720472744 -4.1627480315288,-41.293275590876 4.1627480315288,-41.293275590876 11.938854330803,-38.460720472744 18.891106299361,-34.804204724684 25.019362204921,-30.323763779766 30.323763779766,-25.019397637992 34.804204724684,-18.891106299361 38.460685039673,-11.938854330803 41.293311023947,-4.1625354331036 41.293275590876,4.1625354331036 38.460685039673,11.938854330803 34.804204724684,18.891106299361 30.323763779766,25.019397637992 25.019362204921,30.323763779766 18.891106299361,34.804204724684 11.938854330803,38.460720472744 z"
       id="path3180-5" />
    <path
       sodipodi:nodetypes="ccccccccccccccccccccccccccccccccc"
       inkscape:connector-curvature="0"
       style="fill:#ff0000;fill-opacity:1;stroke:none"
       d="m 2381.8621889951,789.88319291961 -4.1627480315288,41.293275590876 -11.938854330803,38.460720472744 -18.891106299361,34.804204724684 -25.019362204921,30.323728346695 -30.323763779766,25.019397637992 -34.804204724684,18.89107086629 -38.460685039673,11.938854330803 -41.293275590876,4.1625354331036 -41.293311023947,-4.1625354331036 -38.460685039673,-11.938854330803 -34.804204724684,-18.89107086629 -30.323763779766,-25.019397637992 -25.019362204921,-30.323728346695 -18.891106299361,-34.804204724684 -11.938854330803,-38.460720472744 -4.1627480315288,-41.293275590876 4.1627480315288,-41.293275590876 11.938854330803,-38.460720472744 18.891106299361,-34.804204724684 25.019362204921,-30.323763779766 30.323763779766,-25.019397637992 34.804204724684,-18.891106299361 38.460685039673,-11.938854330803 41.293311023947,-4.1625354331036 41.293275590876,4.1625354331036 38.460685039673,11.938854330803 34.804204724684,18.891106299361 30.323763779766,25.019397637992 25.019362204921,30.323763779766 18.891106299361,34.804204724684 11.938854330803,38.460720472744 z"
       id="path3180-5-5" />
    <path
       sodipodi:nodetypes="ccccccccccccccccccccccccccccccccc"
       inkscape:connector-curvature="0"
       style="fill:#ff0000;fill-opacity:1;stroke:none"
       d="m 2836.1315905735,788.21305512432 -4.1627480315288,41.293275590876 -11.938854330803,38.460720472744 -18.891106299361,34.804204724684 -25.019362204921,30.323728346695 -30.323763779766,25.019397637992 -34.804204724684,18.89107086629 -38.460685039673,11.938854330803 -41.293275590876,4.1625354331036 -41.293311023947,-4.1625354331036 -38.460685039673,-11.938854330803 -34.804204724684,-18.89107086629 -30.323763779766,-25.019397637992 -25.019362204921,-30.323728346695 -18.891106299361,-34.804204724684 -11.938854330803,-38.460720472744 -4.1627480315288,-41.293275590876 4.1627480315288,-41.293275590876 11.938854330803,-38.460720472744 18.891106299361,-34.804204724684 25.019362204921,-30.323763779766 30.323763779766,-25.019397637992 34.804204724684,-18.891106299361 38.460685039673,-11.938854330803 41.293311023947,-4.1625354331036 41.293275590876,4.1625354331036 38.460685039673,11.938854330803 34.804204724684,18.891106299361 30.323763779766,25.019397637992 25.019362204921,30.323763779766 18.891106299361,34.804204724684 11.938854330803,38.460720472744 z"
       id="path3180-5-1" />
    <path
       sodipodi:nodetypes="ccccccccccccccccccccccccccccccccc"
       inkscape:connector-curvature="0"
       style="fill:#ff0000;fill-opacity:1;stroke:none"
       d="m 3068.8415433313,689.67669685582 -2.206417322852,21.885200787574 -6.3275314961128,20.383937008035 -10.01214566937,18.446066929279 -13.260153543411,16.071377952882 -16.071413385953,13.260153543411 -18.446031496208,10.01214566937 -20.383937008035,6.3274960630419 -21.885200787574,2.206417322852 -21.885236220645,-2.206417322852 -20.383937008035,-6.3274960630419 -18.446031496208,-10.01214566937 -16.071413385953,-13.260153543411 -13.260153543411,-16.071377952882 -10.01214566937,-18.446066929279 -6.3275314961128,-20.383937008035 -2.206417322852,-21.885200787574 2.206417322852,-21.885200787574 6.3275314961128,-20.383972441105 10.01214566937,-18.446031496208 13.260153543411,-16.071413385953 16.071413385953,-13.260153543411 18.446031496208,-10.012181102441 20.383937008035,-6.3274960630419 21.885236220645,-2.206417322852 21.885200787574,2.206417322852 20.383937008035,6.3274960630419 18.446031496208,10.012181102441 16.071413385953,13.260153543411 13.260153543411,16.071413385953 10.01214566937,18.446031496208 6.3275314961128,20.383972441105 z"
       id="path3180-5-7" />
    <path
       sodipodi:nodetypes="ccccccccccccccccccccccccccccccccc"
       inkscape:connector-curvature="0"
       style="fill:#ff0000;fill-opacity:1;stroke:none"
       d="m 3213.5758937261,606.17125984729 -1.346456692924,13.356708661522 -3.8617086614477,12.440480315059 -6.1105393701269,11.257759842608 -8.0927362205362,9.8085118111009 -9.8085118111009,8.0927362205362 -11.257759842608,6.110503937056 -12.440444881988,3.8617440945186 -13.356708661522,1.346456692924 -13.356744094593,-1.346456692924 -12.440444881988,-3.8617440945186 -11.257759842608,-6.110503937056 -9.8085118111009,-8.0927362205362 -8.0927362205362,-9.8085118111009 -6.1105393701269,-11.257759842608 -3.8617086614477,-12.440480315059 -1.346456692924,-13.356708661522 1.346456692924,-13.356708661522 3.8617086614477,-12.440480315059 6.1105393701269,-11.257724409537 8.0927362205362,-9.8085118111009 9.8085118111009,-8.092771653607 11.257759842608,-6.110503937056 12.440444881988,-3.8617440945186 13.356744094593,-1.346456692924 13.356708661522,1.346456692924 12.440444881988,3.8617440945186 11.257759842608,6.110503937056 9.8085118111009,8.092771653607 8.0927362205362,9.8085118111009 6.1105393701269,11.257724409537 3.8617086614477,12.440480315059 z"
       id="path3180-5-11" />
    <path
       style="fill:#ff00ff;stroke:none"
       d="m 2919.0406535663,737.58600000581 -52.106137795686,7.0677992126541 -21.819933071038,21.123283464733 -10.86317716544,28.97925590574 1.2146456693009,38.517200787705 22.207570866317,44.988874016102 47.083039370449,11.958555118204 37.589421260139,-17.833039370219 263.9662086635,-28.440035433295 77.020015748638,-1.9718503937163 68.413074803688,-1.4881889763897 25.415078740358,13.110732283568 5.8559173228808,15.048850393819 28.843547244322,0.72850393701361 -7.4749606299801,-31.271704724656 11.64142913395,-93.109677166087 -61.261759843002,-38.756976378258 -55.790291339022,-3.070629921284 -59.90842913433,-20.592141732446 -25.707685039572,0.61901574803637 -28.117204724631,-18.009637795417 -43.062059055457,6.4411299213106 -60.963661417803,45.103783464922 -98.925874016527,-1.4112992126095 z"
       id="path3017-1-4-4-5-5"
       inkscape:connector-curvature="0"
       sodipodi:nodetypes="ccccccccccccccccccccccccc" />
    <path
       style="fill:#ff00ff;stroke:none"
       d="m 2438.2186299405,647.13111024132 -18.987874015898,-9.3521338583414 -27.768259842738,-0.25866141732487 -24.979181102559,10.567594488272 -23.619755905698,0.70972440945441 -6.6833858268243,9.9644881890548 28.051440945103,45.539681102721 16.776425196982,60.03396850441 -1.1551181102453,52.041118110646 -18.383208661562,57.321814961081 -44.554393701138,70.465393701342 1.2940157480417,15.183566929253 11.285043307175,6.8019094488725 28.582086614398,-11.527972441036 25.707685039572,0.61901574803637 31.509460630169,-1.9757480315116 31.514102362453,-13.312204724514 26.204173228553,-22.222877952931 -20.25698031512,-31.060204724654 -19.184066929285,-53.373578740578 -7.9001220473063,-36.724393701077 3.1652362204974,-43.445940945224 13.985858267827,-45.880370079101 3.1383070866389,-35.760720472723 z"
       id="path3017-1-4-4-5-2"
       inkscape:connector-curvature="0"
       sodipodi:nodetypes="ccccccccccccccccccccccccc" />
    <path
       style="fill:#ff00ff;stroke:none"
       d="m 801.70883858899,377.31950787699 -16.677814960761,165.31437401705 -9.2609645670021,24.961712598622 47.083039370449,11.958555118204 37.589421260139,-17.833039370219 52.475066929547,5.8857519685503 296.69591338816,-52.522051181516 193.34831102514,8.1620787402217 231.99175984435,-38.977937008181 265.91187401784,-33.097322834906 170.05854330843,17.947417322976 166.57600393832,-27.27758267738 188.84785039519,7.2290196850963 184.26819685184,-35.271460630199 183.06680315105,-11.31753543316 144.00106299326,-21.201874015915 133.07828740262,-6.9576377953304 39.070062992434,15.121062992245 36.487913386114,3.6988228346748 24.126094488379,7.8515078740776 28.843547244322,0.72850393701361 -7.4749606299801,-31.271704724656 L 3180.0409370329,326.7544641758 3184.4184094739,280.14628464788 3159.254551206,243.12420708853 3169.4522953005,207.76040078904 3135.1088267963,186.62193071013 3079.3185354573,183.55130078885 2909.0842086843,115.93596968595 2680.9601102573,105.50301378036 2510.834598445,165.47553425327 2276.7832559234,216.20926771824 2099.576728363,191.65516299364 1830.2840433215,215.11233071036 1429.0420748144,269.59061693126 966.92821654305,330.65331023882 903.43031103074,373.78633464861 z"
       id="path3017-1-4-4-5-7"
       inkscape:connector-curvature="0"
       sodipodi:nodetypes="cccccccccccccccccccccccccccccccccccccc" />
    <path
       sodipodi:nodetypes="ccccccccccccccc"
       inkscape:connector-curvature="0"
       style="fill:#ff0000;fill-opacity:1;stroke:none"
       d="m -0.98331944882664,535.76950394123 -1.8796000393849,-7.9448740158106 -1.1858651574897,-6.7519842520217 77.836907480928,-3.711507874045 33.860264173495,-3.4972440945157 35.488863779807,5.7024212598874 28.238669291561,-1.5746456693037 16.178725984379,-1.0445669291421 12.136234252064,2.643307086635 19.092550393851,3.8122795275891 10.944244488275,0.88192913386521 2.3197322834828,4.7524251968878 0.78271653543923,11.528397637886 -117.45648070959,-5.1324094488593 -117.44142944974,5.9149133858733"
       id="path3180-6" />
    <path
       sodipodi:nodetypes="cccccccc"
       inkscape:connector-curvature="0"
       style="fill:#ff0000;fill-opacity:1;stroke:none"
       d="m 268.07364921471,655.67232283981 2.2545354330886,-15.93754724422 146.51716181218,-0.13110236220576 201.55592126143,2.1855118110408 -7.0564960630477,-239.73448819086 27.241688976592,0.72000000000567 -1.8786614173376,256.21805905714 z"
       id="path3180-6-1" />
    <path
       sodipodi:nodetypes="ccccccccc"
       inkscape:connector-curvature="0"
       style="fill:#ff0000;fill-opacity:1;stroke:none"
       d="m -4.153960629954,759.21902362803 0.039968503937323,-18.152114173371 146.51716181218,-0.13110236220576 27.712410236439,-0.029196850393931 29.483858267949,-0.5612598425241 47.172812598797,15.114685039489 -1.8787322834794,18.152114173371 -44.297192126333,-15.335503937129 z"
       id="path3180-6-4" />
    <path
       sodipodi:nodetypes="cccccccc"
       inkscape:connector-curvature="0"
       style="fill:#ff0000;fill-opacity:1;stroke:none"
       d="m 283.10461299436,864.43582677846 1.1473228346547,-24.795814960825 146.51715472556,-0.13110236220576 27.712417323053,-0.029196850393931 29.483858267949,-0.5612598425241 27.241688976592,0.72000000000567 -2.9859448819133,24.795814960825 z"
       id="path3180-6-2" />
    <path
       inkscape:transform-center-x="1.1068673"
       sodipodi:nodetypes="cccccccc"
       inkscape:connector-curvature="0"
       style="fill:#ff0000;fill-opacity:1;stroke:none"
       d="m 575.37350787855,862.76572441624 1.684133858281,-24.795814960825 215.04493700957,-0.13110236220576 40.67383464599,-0.029196850393931 43.273771653884,-0.5612598425241 62.682307087108,-1.4945669291456 -22.652681102541,26.456740157689 z"
       id="path3180-6-3" />
    <path
       style="fill:#ff00ff;stroke:none"
       d="m -0.92639374016477,223.78665826948 -28.762384252195,60.000112205197 -22.797354685219,21.426810236389 18.199984606443,47.301445275963 39.62656417354,9.1519582677886 17.179221259978,-29.763836220707 50.563122874414,2.9027480315189 51.063186614575,7.3056933071441 61.355228740641,22.973268897819 104.82970748114,-8.1781653543951 11.871680315054,26.581996063201 41.574199606627,10.45137401583 61.935618898125,24.147106299403 43.844740157826,9.0007440945591 50.72155511851,14.181094488301 38.638133858572,-27.600980315178 131.00974015851,33.925641732551 125.10173622146,10.006122047323 64.647637795785,-78.152704725025 L 841.30380709324,347.03807953029 724.20466536003,313.12790433317 704.47085433626,278.96671771873 680.73512598961,263.80065472649 649.74996850905,192.76607126136 606.00351968981,159.97923425323 543.38754331137,170.5706291352 474.45551575177,182.39230630065 430.98509055457,157.2619322847 361.92263386112,134.22402992232 260.19850748236,153.00643110357 117.15110433163,148.19125039487 77.045633858874,152.88825826892 50.678716535832,170.04727204858"
       id="path3017-1-4-4-5-7-2"
       inkscape:connector-curvature="0"
       sodipodi:nodetypes="ccccccccccccccccccccccccccccccccc" />
    <path
       inkscape:transform-center-x="2.6332727"
       sodipodi:nodetypes="cccccccc"
       inkscape:connector-curvature="0"
       style="fill:#ff0000;fill-opacity:1;stroke:none"
       d="m -37.494010630216,910.97893701505 0.68474409449358,-47.292236220845 511.59880984655,-2.0299606299372 96.764350394463,-0.45212598425553 102.94968897719,-8.6898188977062 249.03322441141,7.8257125984868 -7.1042598425756,47.292236220845 z"
       id="path3180-6-3-2" />
    <path
       style="fill:#ff00ff;stroke:none"
       d="m 725.96122441517,921.03866929859 -52.106137795686,7.0677992126541 -9.0485787402287,84.604783465233 8.6419842520366,93.775287402313 87.98307874085,160.71292913512 63.616287402076,56.834468504385 21.056173228512,-62.708952756399 288.6640157503,-1.199763779537 -42.812185039707,-33.499098425461 -0.62397637795767,-36.967535433362 7.0039488189528,-81.792460630565 -51.283559055522,-92.135409449544 -80.32489370142,-127.14289370179 -72.323503937577,32.357728346711 -59.90842913433,-20.592141732446 -25.707685039572,0.61901574803637 z"
       id="path3017-1-4-4-5"
       inkscape:connector-curvature="0"
       sodipodi:nodetypes="ccccccccccccccccc" />
    <path
       style="fill:none;stroke:#000000;stroke-width:5.3149609842938;stroke-linecap:butt;stroke-linejoin:miter;stroke-miterlimit:4;stroke-opacity:1;stroke-dasharray:none"
       d="m 540.07238976803,424.48588583011 7.1112755906072,404.62122047563"
       id="path3017-8-1-1"
       inkscape:connector-curvature="0"
       sodipodi:nodetypes="cc" />
    <path
       transform="matrix(26.544201732492,0,0,69.9439748037,322.31591220726,-632.11517717033)"
       d="m 8.9134899,15.533863 a 0.66743523,0.21530168 0 1 1 -1.3348705,0 0.66743523,0.21530168 0 1 1 1.3348705,0 z"
       sodipodi:ry="0.21530168"
       sodipodi:rx="0.66743523"
       sodipodi:cy="15.533863"
       sodipodi:cx="8.2460546"
       id="path3865-4-1"
       style="fill:#808000;stroke:none"
       sodipodi:type="arc" />
    <path
       style="fill:none;stroke:#000000;stroke-width:5.3149609842938;stroke-linecap:butt;stroke-linejoin:miter;stroke-miterlimit:4;stroke-opacity:1;stroke-dasharray:none"
       d="m 225.65203937186,654.27268110751 211.9587165371,-122.44570866238"
       id="path3017-8-1-1-6"
       inkscape:connector-curvature="0"
       sodipodi:nodetypes="cc" />
    <path
       style="fill:#ff00ff;stroke:none"
       d="m 18.841269685188,756.57192520281 -21.102200787568,10.389649606381 -1.2975944881992,51.386279527964 -0.21628346456863,38.411114173531 24.867921614369,34.4826141735 58.079869724867,3.6848622047534 58.703811024084,0.40606299212918 72.743722441518,-3.4143307086883 54.62875984295,0.8266535433136 18.199842519828,-11.500015748122 L 280.48751575024,850.38757087284 282.55481929356,827.99433071518 272.38801181317,813.61633465208 247.00482283659,798.68717717164 215.31607086784,794.9872204787 200.57132480473,773.08805906121 163.91584842649,759.13961811621 50.732769685439,756.43678347052 z"
       id="path3017-1-4-4-5-8"
       inkscape:connector-curvature="0"
       sodipodi:nodetypes="ccccccccccccccccccc" />
    <path
       transform="matrix(26.544201732492,0,0,69.9439748037,143.19675354443,-549.92175590984)"
       d="m 8.9134899,15.533863 a 0.66743523,0.21530168 0 1 1 -1.3348705,0 0.66743523,0.21530168 0 1 1 1.3348705,0 z"
       sodipodi:ry="0.21530168"
       sodipodi:rx="0.66743523"
       sodipodi:cy="15.533863"
       sodipodi:cx="8.2460546"
       id="path3865-4-1-5"
       style="fill:#808000;stroke:none"
       sodipodi:type="arc" />
    <path
       style="fill:none;stroke:#000000;stroke-width:5.3149609842938;stroke-linecap:butt;stroke-linejoin:miter;stroke-miterlimit:4;stroke-opacity:1;stroke-dasharray:none"
       d="m 1186.7740866235,816.43932284107 54.974940945315,-13.008507874118 56.774622047691,-0.92338582677892"
       id="path3017-8-1-1-6-7"
       inkscape:connector-curvature="0"
       sodipodi:nodetypes="ccc" />
    <path
       transform="matrix(26.544201732492,0,0,69.9439748037,1020.7189133939,-308.03070472683)"
       d="m 8.9134899,15.533863 a 0.66743523,0.21530168 0 1 1 -1.3348705,0 0.66743523,0.21530168 0 1 1 1.3348705,0 z"
       sodipodi:ry="0.21530168"
       sodipodi:rx="0.66743523"
       sodipodi:cy="15.533863"
       sodipodi:cx="8.2460546"
       id="path3865-4-1-5-6"
       style="fill:#808000;stroke:none"
       sodipodi:type="arc" />
    <path
       style="fill:none;stroke:#00ee00;stroke-width:5.3149609842938;stroke-linecap:butt;stroke-linejoin:miter;stroke-miterlimit:4;stroke-opacity:1;stroke-dasharray:none"
       d="M 106.90646456777,511.5060354371 73.857561024204,515.14476378358"
       id="path3813-1"
       inkscape:connector-curvature="0"
       sodipodi:nodetypes="cc" />
    <path
       style="fill:none;stroke:#00ee00;stroke-width:5.3149609842938;stroke-linecap:butt;stroke-linejoin:miter;stroke-miterlimit:4;stroke-opacity:1;stroke-dasharray:none"
       d="m 74.795244095077,515.10468898043 -79.277988189601,3.361889763806"
       id="path3813-1-1"
       inkscape:connector-curvature="0"
       sodipodi:nodetypes="cc" />
    <path
       style="fill:none;stroke:#00ee00;stroke-width:5.3149609842938;stroke-linecap:butt;stroke-linejoin:miter;stroke-miterlimit:4;stroke-opacity:1;stroke-dasharray:none"
       d="M 143.16999803262,517.31925590959 105.69196063075,511.54607480718"
       id="path3813-1-8"
       inkscape:connector-curvature="0"
       sodipodi:nodetypes="cc" />
    <path
       style="fill:none;stroke:#00ee00;stroke-width:5.3149609842938;stroke-linecap:butt;stroke-linejoin:miter;stroke-miterlimit:4;stroke-opacity:1;stroke-dasharray:none"
       d="m 187.18451574951,514.55104724815 -44.675379921612,3.0851574803393"
       id="path3813-1-9"
       inkscape:connector-curvature="0"
       sodipodi:nodetypes="cc" />
    <path
       style="fill:none;stroke:#00ee00;stroke-width:5.3149609842938;stroke-linecap:butt;stroke-linejoin:miter;stroke-miterlimit:4;stroke-opacity:1;stroke-dasharray:none"
       d="M 218.46527362377,520.91790945292 186.52365354478,515.14476378358"
       id="path3813-1-2"
       inkscape:connector-curvature="0"
       sodipodi:nodetypes="cc" />
    <path
       style="fill:none;stroke:#00ee00;stroke-width:5.3149609842938;stroke-linecap:butt;stroke-linejoin:miter;stroke-miterlimit:4;stroke-opacity:1;stroke-dasharray:none"
       d="m 230.09175000181,521.74838976789 -12.840980315062,-0.79051181102985"
       id="path3813-1-7"
       inkscape:connector-curvature="0"
       sodipodi:nodetypes="cc" />
    <path
       style="fill:none;stroke:#00ee00;stroke-width:5.3149609842938;stroke-linecap:butt;stroke-linejoin:miter;stroke-miterlimit:4;stroke-opacity:1;stroke-dasharray:none"
       d="M 105.7991811032,511.22919685442 66.106576772174,515.14476378358"
       id="path3813-1-95"
       inkscape:connector-curvature="0"
       sodipodi:nodetypes="cc" />
    <path
       style="fill:none;stroke:#00ee00;stroke-width:5.3149609842938;stroke-linecap:butt;stroke-linejoin:miter;stroke-miterlimit:4;stroke-opacity:1;stroke-dasharray:none"
       d="m 199.15497992283,737.94550394282 -202.80726141892,1.1473228346547"
       id="path3813-1-4"
       inkscape:connector-curvature="0"
       sodipodi:nodetypes="cc" />
    <path
       style="fill:none;stroke:#00ee00;stroke-width:5.3149609842938;stroke-linecap:butt;stroke-linejoin:miter;stroke-miterlimit:4;stroke-opacity:1;stroke-dasharray:none"
       d="M 247.52645078935,753.1613858327 198.37362401731,737.96275984833"
       id="path3813-1-3"
       inkscape:connector-curvature="0"
       sodipodi:nodetypes="cc" />
    <path
       style="fill:none;stroke:#00ee00;stroke-width:5.3149609842938;stroke-linecap:butt;stroke-linejoin:miter;stroke-miterlimit:4;stroke-opacity:1;stroke-dasharray:none"
       d="m 514.71418110642,837.72184252628 -230.60560039552,-0.12755905511911"
       id="path3813-1-12"
       inkscape:connector-curvature="0"
       sodipodi:nodetypes="cc" />
    <path
       style="fill:none;stroke:#00ee00;stroke-width:5.3149609842938;stroke-linecap:butt;stroke-linejoin:miter;stroke-miterlimit:4;stroke-opacity:1;stroke-dasharray:none"
       d="m 937.71244488927,834.00278740814 -360.77396456977,1.6352362204853"
       id="path3813-1-33"
       inkscape:connector-curvature="0"
       sodipodi:nodetypes="cc" />
    <path
       style="fill:none;stroke:#00ee00;stroke-width:5.3149609842938;stroke-linecap:butt;stroke-linejoin:miter;stroke-miterlimit:4;stroke-opacity:1;stroke-dasharray:none"
       d="m 576.37286220926,858.66629528235 -64.812188976888,0.85216535433742"
       id="path3813-1-41"
       inkscape:connector-curvature="0"
       sodipodi:nodetypes="cc" />
    <path
       style="fill:none;stroke:#000000;stroke-width:5.3149609842938;stroke-linecap:butt;stroke-linejoin:miter;stroke-miterlimit:4;stroke-opacity:1;stroke-dasharray:none"
       d="m 2315.1684685222,577.08393307541 64.690015748541,102.33283464648"
       id="path3017-8-1-1-1"
       inkscape:connector-curvature="0"
       sodipodi:nodetypes="cc" />
  </g>
</svg>
