<?xml version="1.0" encoding="UTF-8" standalone="no"?>
<!-- Created with Inkscape (http://www.inkscape.org/) -->

<svg
   xmlns:dc="http://purl.org/dc/elements/1.1/"
   xmlns:cc="http://creativecommons.org/ns#"
   xmlns:rdf="http://www.w3.org/1999/02/22-rdf-syntax-ns#"
   xmlns:svg="http://www.w3.org/2000/svg"
   xmlns="http://www.w3.org/2000/svg"
   xmlns:sodipodi="http://sodipodi.sourceforge.net/DTD/sodipodi-0.dtd"
   xmlns:inkscape="http://www.inkscape.org/namespaces/inkscape"
   width="744.09448819"
   height="1052.3622047"
   id="svg2"
   version="1.1"
   inkscape:version="0.48.4 r9939"
   sodipodi:docname="level5.svg">
  <defs
     id="defs4" />
  <sodipodi:namedview
     id="base"
     pagecolor="#ffffff"
     bordercolor="#666666"
     borderopacity="1.0"
     inkscape:pageopacity="0.0"
     inkscape:pageshadow="2"
     inkscape:zoom="0.7071068"
     inkscape:cx="621.99148"
     inkscape:cy="744.48127"
     inkscape:document-units="px"
     inkscape:current-layer="layer1"
     showgrid="false"
     inkscape:snap-global="false"
     inkscape:snap-page="true"
     inkscape:window-width="1920"
     inkscape:window-height="1017"
     inkscape:window-x="-8"
     inkscape:window-y="-8"
     inkscape:window-maximized="1" />
  <metadata
     id="metadata7">
    <rdf:RDF>
      <cc:Work
         rdf:about="">
        <dc:format>image/svg+xml</dc:format>
        <dc:type
           rdf:resource="http://purl.org/dc/dcmitype/StillImage" />
        <dc:title />
      </cc:Work>
    </rdf:RDF>
  </metadata>
  <g
     inkscape:label="Vrstva 1"
     inkscape:groupmode="layer"
     id="layer1">
    <rect
       style="fill:#0000ff;fill-opacity:1;stroke:none"
       id="rect2985"
       width="1354.4790944989"
       height="770.66929134465"
       x="0"
       y="0" />
    <path
       sodipodi:type="arc"
       style="fill:#00ff00;fill-opacity:1;stroke:none"
       id="path3013"
       sodipodi:cx="3.8054054"
       sodipodi:cy="5.5989327"
       sodipodi:rx="0.79567569"
       sodipodi:ry="1.1070271"
       d="m 4.6010811,5.5989327 a 0.79567569,1.1070271 0 1 1 -1.5913514,0 0.79567569,1.1070271 0 1 1 1.5913514,0 z"
       transform="matrix(17.812820551321,0,0,12.802964881991,36.658328740446,549.76021653976)" />
    <path
       style="fill:none;stroke:#000000;stroke-width:5.3149609842938;stroke-linecap:butt;stroke-linejoin:miter;stroke-miterlimit:4;stroke-opacity:1;stroke-dasharray:none"
       d="m 27.055647638008,726.30889370651 217.82606102534,3.0887007874259"
       id="path3017"
       inkscape:connector-curvature="0"
       sodipodi:nodetypes="cc" />
    <path
       style="fill:none;stroke:#00ff00;stroke-width:5.3149609842938;stroke-linecap:butt;stroke-linejoin:miter;stroke-miterlimit:4;stroke-opacity:1;stroke-dasharray:none"
       d="M 1.593302244107,770.06831102969 1351.6553622154,769.8457204785"
       id="path3813"
       inkscape:connector-curvature="0"
       sodipodi:nodetypes="cc" />
    <path
       style="fill:#ff0000;stroke:none"
       d="m 38.898882283771,644.00098819405 -0.67000393701315,14.445708661531 182.9061814975,-0.40854330708983 80.384786221105,-36.292464567215 153.85187834767,-1.7195669291474 -0.27992125984472,-14.110547244206 -153.86482204846,1.2238582677262 -80.089019291969,36.76418503966 z"
       id="path3017-1-8"
       inkscape:connector-curvature="0"
       sodipodi:nodetypes="ccccccccc" />
    <path
       sodipodi:type="arc"
       style="fill:#ffffff;stroke:none"
       id="path3865-8"
       sodipodi:cx="8.2460546"
       sodipodi:cy="15.533863"
       sodipodi:rx="0.66743523"
       sodipodi:ry="0.21530168"
       d="m 8.9134899,15.533863 a 0.66743523,0.21530168 0 1 1 -1.3348705,0 0.66743523,0.21530168 0 1 1 1.3348705,0 z"
       transform="matrix(26.544201732492,0,0,69.9439748037,-137.14668425305,-384.58590945185)" />
    <path
       style="fill:none;stroke:#000000;stroke-width:5.3149609842938;stroke-linecap:butt;stroke-linejoin:miter;stroke-miterlimit:4;stroke-opacity:1;stroke-dasharray:none"
       d="m 559.85637402016,673.65846850924 122.49170078837,-60.176161417797"
       id="path3017-2"
       inkscape:connector-curvature="0"
       sodipodi:nodetypes="cc" />
    <path
       sodipodi:type="arc"
       style="fill:#ffffff;stroke:none"
       id="path3865-4"
       sodipodi:cx="8.2460546"
       sodipodi:cy="15.533863"
       sodipodi:rx="0.66743523"
       sodipodi:ry="0.21530168"
       d="m 8.9134899,15.533863 a 0.66743523,0.21530168 0 1 1 -1.3348705,0 0.66743523,0.21530168 0 1 1 1.3348705,0 z"
       transform="matrix(26.544201732492,0,0,69.9439748037,391.30061811332,-474.56131890137)" />
    <path
       style="fill:none;stroke:#000000;stroke-width:5.7044855905961;stroke-linecap:butt;stroke-linejoin:miter;stroke-miterlimit:4;stroke-opacity:1;stroke-dasharray:none"
       d="m 421.62994488521,496.5358464606 287.13582283691,2.6992913386039"
       id="path3017-5"
       inkscape:connector-curvature="0"
       sodipodi:nodetypes="cc" />
    <path
       style="fill:#ff0000;stroke:none"
       d="m 1195.8157204819,641.51968110741 0.67003937008402,14.445708661531 -232.52159055301,-0.40854330708983 -80.384775591184,-36.292464567215 -156.51853937131,-1.7620866141871 -0.49854330709054,-14.106826771765 157.31160236344,1.2624803149706 80.089015748662,36.76418503966 z"
       id="path3017-1-8-5"
       inkscape:connector-curvature="0"
       sodipodi:nodetypes="ccccccccc" />
    <path
       style="fill:none;stroke:#000000;stroke-width:5.5177178740592;stroke-linecap:butt;stroke-linejoin:miter;stroke-miterlimit:4;stroke-opacity:1;stroke-dasharray:none"
       d="M 1236.2006693011,293.7475452779 1235.2559527656,666.46629921785"
       id="path3017-5-1"
       inkscape:connector-curvature="0"
       sodipodi:nodetypes="cc" />
    <path
       style="fill:#ff0000;stroke:none"
       d="m 1196.5240630015,297.04819606533 -1.9463385826925,4.059985039402 -2.408031496082,1.45998425198 -4.8869645669676,-0.53518110236642 -12.554114173327,-2.7522992126201 -160.89115748158,-0.35936220472724 -75.955641732882,47.861078740534 -156.51853937131,-1.7620866141871 -0.49854330709054,-19.366423228499 17.075905511945,-0.42548031496398 -0.0023031496063173,5.82210708666 140.2380000011,1.1254606299301 75.65988189036,-47.38935826809 150.08144882008,0.080433070866775 28.957535433299,8.4677598425864 z"
       id="path3017-1-8-5-7"
       inkscape:connector-curvature="0"
       sodipodi:nodetypes="cccccccccccccccc" />
    <path
       style="fill:#ff0000;stroke:none"
       d="m 568.02376772101,324.63674291594 38.974996063299,-1.7979448819039 46.192074803513,1.5799606299337 71.351433071428,-1.5441023622169 0.49854330709054,-14.106826771765 -19.783062992282,1.8411377952901 -41.917535433401,-0.32740157480573 -22.091527559229,1.8119409448962 -8.2235905512459,-1.6001220472567 -6.2690314961124,-0.92781496063723 -27.199098425411,0.99549212599209 -31.827755905762,-0.53068110236638 z"
       id="path3017-1-8-1"
       inkscape:connector-curvature="0"
       sodipodi:nodetypes="ccccccccccccc" />
    <path
       style="fill:none;stroke:#000000;stroke-width:5.7044855905961;stroke-linecap:butt;stroke-linejoin:miter;stroke-miterlimit:4;stroke-opacity:1;stroke-dasharray:none"
       d="m 332.10531141994,-351.49856102639 -0.41580708661745,328.4013405144 -0.58503543307547,174.82394374153 35.469258661697,47.089169291709 55.359637795711,29.268148819128 57.532003937461,0.54085039370505 44.083984252316,21.512459055288 26.391614173436,29.79364251992"
       id="path3017-5-15"
       inkscape:connector-curvature="0"
       sodipodi:nodetypes="cccccccc" />
    <path
       style="fill:none;stroke:#000000;stroke-width:5.3149609842938;stroke-linecap:butt;stroke-linejoin:miter;stroke-miterlimit:4;stroke-opacity:1;stroke-dasharray:none"
       d="m 987.99395670069,711.92965748592 155.53272047367,20.237456693073"
       id="path3017-2-6"
       inkscape:connector-curvature="0"
       sodipodi:nodetypes="cc" />
    <path
       sodipodi:type="arc"
       style="fill:#ffffff;stroke:none"
       id="path3865-4-1"
       sodipodi:cx="8.2460546"
       sodipodi:cy="15.533863"
       sodipodi:rx="0.66743523"
       sodipodi:ry="0.21530168"
       d="m 8.9134899,15.533863 a 0.66743523,0.21530168 0 1 1 -1.3348705,0 0.66743523,0.21530168 0 1 1 1.3348705,0 z"
       transform="matrix(26.544201732492,0,0,69.9439748037,850.7509015815,-407.08215354651)" />
    <path
       style="fill:#ff0000;stroke:none"
       d="m 1199.1375708756,320.0194913411 -30.712712598667,0.86290157480994 3.0550393701028,-7.5748783465163 -18.065622047386,10.556734252052 19.479011811177,9.6800456693676 -4.0718976378273,-7.8288236221089 30.645566929375,-0.2742519685061 z"
       id="path3822-6"
       inkscape:connector-curvature="0"
       sodipodi:nodetypes="cccccccc" />
  </g>
</svg>
