<?xml version="1.0" encoding="UTF-8" standalone="no"?>
<!-- Created with Inkscape (http://www.inkscape.org/) -->

<svg
   xmlns:dc="http://purl.org/dc/elements/1.1/"
   xmlns:cc="http://creativecommons.org/ns#"
   xmlns:rdf="http://www.w3.org/1999/02/22-rdf-syntax-ns#"
   xmlns:svg="http://www.w3.org/2000/svg"
   xmlns="http://www.w3.org/2000/svg"
   xmlns:sodipodi="http://sodipodi.sourceforge.net/DTD/sodipodi-0.dtd"
   xmlns:inkscape="http://www.inkscape.org/namespaces/inkscape"
   width="744.09448819"
   height="1052.3622047"
   id="svg2"
   version="1.1"
   inkscape:version="0.48.4 r9939"
   sodipodi:docname="level11.svg">
  <defs
     id="defs4" />
  <sodipodi:namedview
     id="base"
     pagecolor="#ffffff"
     bordercolor="#666666"
     borderopacity="1.0"
     inkscape:pageopacity="0.0"
     inkscape:pageshadow="2"
     inkscape:zoom="0.54481371"
     inkscape:cx="291.07701"
     inkscape:cy="543.47055"
     inkscape:document-units="px"
     inkscape:current-layer="layer1"
     showgrid="false"
     inkscape:snap-global="false"
     inkscape:snap-page="true"
     inkscape:window-width="1920"
     inkscape:window-height="1017"
     inkscape:window-x="-8"
     inkscape:window-y="-8"
     inkscape:window-maximized="1"
     showguides="true"
     inkscape:guide-bbox="true" />
  <metadata
     id="metadata7">
    <rdf:RDF>
      <cc:Work
         rdf:about="">
        <dc:format>image/svg+xml</dc:format>
        <dc:type
           rdf:resource="http://purl.org/dc/dcmitype/StillImage" />
        <dc:title />
      </cc:Work>
    </rdf:RDF>
  </metadata>
  <g
     inkscape:label="Vrstva 1"
     inkscape:groupmode="layer"
     id="layer1">
    <rect
       style="fill:#0000ff;fill-opacity:1;stroke:none"
       id="rect2985"
       width="571.84143307537"
       height="936.30865748769"
       x="0"
       y="0" />
    <path
       sodipodi:type="arc"
       style="fill:#00ff00;fill-opacity:1;stroke:none"
       id="path3013"
       sodipodi:cx="3.8054054"
       sodipodi:cy="5.5989327"
       sodipodi:rx="0.79567569"
       sodipodi:ry="1.1070271"
       d="m 4.6010811,5.5989327 a 0.79567569,1.1070271 0 1 1 -1.5913514,0 0.79567569,1.1070271 0 1 1 1.5913514,0 z"
       transform="matrix(17.812820551321,0,0,12.802964881991,41.250794882215,225.37772362382)" />
    <path
       style="fill:none;stroke:#000000;stroke-width:5.3149609842938;stroke-linecap:butt;stroke-linejoin:miter;stroke-miterlimit:4;stroke-opacity:1;stroke-dasharray:none"
       d="M 297.60623504171,193.70381811176 79.981238977008,234.69628819082 47.736513779903,287.96808897865 35.949876378236,343.20951850664"
       id="path3017"
       inkscape:connector-curvature="0"
       sodipodi:nodetypes="cccc" />
    <path
       style="fill:#ff0000;stroke:none"
       d="m -0.59719606299683,329.9255503963 -7.0063015748583,614.3867291387 100.28258858347,4.834594488227 137.54218110345,-2.0558267716697 -18.636874015895,-27.542551181319 -135.3530692924,-2.2099606299387 3.1629685039619,-54.161929134285 125.94674763879,-20.6148188978 2.6210905512017,-30.548090551422 L 200.51764015906,793.70638583302 208.27256811188,727.46326772226 210.74377677331,701.27206299765 215.49365433241,591.92968110702 209.34135354496,560.93555905953 55.353281102798,572.02575591002 68.089237795812,494.60003149996 188.70611811172,490.03051181488 196.19623700942,459.18386220834 67.305291732813,469.5975000037 67.665444095021,375.06833858563 211.10075078906,362.27696456978 212.60307047411,349.30989921535 208.3784314977,340.37969173496 202.0536531512,337.63883386093 z"
       id="path3017-1-1"
       inkscape:connector-curvature="0"
       sodipodi:nodetypes="ccccccccccccccccccccccccc" />
    <path
       sodipodi:type="arc"
       style="fill:#ffffff;stroke:none"
       id="path3865-8"
       sodipodi:cx="8.2460546"
       sodipodi:cy="15.533863"
       sodipodi:rx="0.66743523"
       sodipodi:ry="0.21530168"
       d="m 8.9134899,15.533863 a 0.66743523,0.21530168 0 1 1 -1.3348705,0 0.66743523,0.21530168 0 1 1 1.3348705,0 z"
       transform="matrix(26.544201732492,0,0,69.9439748037,21.895774724582,-758.64543307684)" />
    <path
       style="fill:#ff0000;stroke:none"
       d="M -21.027074173394,3.0474765354571 -17.818435984392,32.469164645925 274.65119645886,36.389125984539 295.01616614406,33.940284094755 307.3584897662,24.851120315156 313.52740157727,11.371626496153 z"
       id="path3017-1-5"
       inkscape:connector-curvature="0"
       sodipodi:nodetypes="ccccccc" />
    <path
       style="fill:#ff0000;stroke:none"
       d="M 593.24910236688,7.6542434646272 591.36122835111,37.075932283757 419.26025197181,40.995892913709 407.27650394021,38.547042519989 400.01368110551,29.457880157712 396.38352756218,15.978386338708 z"
       id="path3017-1-5-5"
       inkscape:connector-curvature="0"
       sodipodi:nodetypes="ccccccc" />
    <path
       style="fill:#ff0000;stroke:none"
       d="m 276.82086614391,27.682086614391 -42.076771653875,2.2145669291513 23.252952756089,100.76279527638 46.505905512177,104.08464567011 19.931102362362,151.69783464686 -4.4291338583026,132.87401574908 -5.5364173228782,137.30314960738 28.789370078967,187.13090551328 27.682086614391,-1.1072834645756 -3.3218503937269,-7.7509842520295 18.823818897786,9.9655511811808 -17.71653543321,11.072834645756 3.3218503937269,-7.7509842520295 -27.682086614391,0 1.1072834645756,9.9655511811808 114.05019685129,-4.4291338583026 L 448.44980315314,226.99311023801 354.33070866421,200.41830708819 306.71751968745,119.58661417417 z"
       id="path3017-1-1-1"
       inkscape:connector-curvature="0"
       sodipodi:nodetypes="cccccccccccccccccccc" />
    <path
       style="fill:none;stroke:#000000;stroke-width:5.3149609842938;stroke-linecap:butt;stroke-linejoin:miter;stroke-miterlimit:4;stroke-opacity:1;stroke-dasharray:none"
       d="m 210.97653661583,569.34513779976 57.255090945333,-1.9998425197008 50.171690551576,14.977842519803"
       id="path3017-4"
       inkscape:connector-curvature="0"
       sodipodi:nodetypes="ccc" />
    <path
       style="fill:none;stroke:#000000;stroke-width:5.4043993701213;stroke-linecap:butt;stroke-linejoin:miter;stroke-miterlimit:4;stroke-opacity:1;stroke-dasharray:none"
       d="m 190.56537283615,475.45961811398 132.45761693018,3.9416456693224"
       id="path3017-74-9"
       inkscape:connector-curvature="0"
       sodipodi:nodetypes="cc" />
    <path
       style="fill:none;stroke:#000000;stroke-width:5.3149609842938;stroke-linecap:butt;stroke-linejoin:miter;stroke-miterlimit:4;stroke-opacity:1;stroke-dasharray:none"
       d="m 209.20468819062,356.16465354611 112.84903346546,-0.96838582677928"
       id="path3017-74"
       inkscape:connector-curvature="0"
       sodipodi:nodetypes="cc" />
    <path
       style="fill:#ff0000;stroke:none"
       d="M 542.25386220899,13.262437204829 558.59598425637,922.62819685766 603.55668898113,938.73568110975 591.31427953222,24.714948189171 z"
       id="path3017-1-15"
       inkscape:connector-curvature="0"
       sodipodi:nodetypes="ccccc" />
    <path
       sodipodi:nodetypes="ccccc"
       inkscape:connector-curvature="0"
       id="path3480"
       d="M 422.59315748364,13.262437204829 438.73033464912,945.97664173973 603.55668898113,938.73568110975 567.41757874463,24.714948189171 z"
       style="fill:#ff0000;stroke:none" />
    <path
       style="fill:none;stroke:#000000;stroke-width:5.3149609842938;stroke-linecap:butt;stroke-linejoin:miter;stroke-miterlimit:4;stroke-opacity:1;stroke-dasharray:none"
       d="m 368.37988582967,121.51294724505 -3.7357440945176,246.32594645863 5.9830511811495,260.62898031701 107.8553267725,271.89028346671 -58.035614173685,-3.3271653543569"
       id="path3017-2"
       inkscape:connector-curvature="0"
       sodipodi:nodetypes="ccccc" />
    <path
       style="fill:none;stroke:#00ff00;stroke-width:5.3149609842938;stroke-linecap:butt;stroke-linejoin:miter;stroke-miterlimit:4;stroke-opacity:1;stroke-dasharray:none"
       d="M 2.1162872834812,327.36812953014 205.09719803311,335.51236771918"
       id="path3813-1"
       inkscape:connector-curvature="0"
       sodipodi:nodetypes="cc" />
    <path
       style="fill:none;stroke:#000000;stroke-width:5.4043993701213;stroke-linecap:butt;stroke-linejoin:miter;stroke-miterlimit:4;stroke-opacity:1;stroke-dasharray:none"
       d="m 77.070263386434,546.75740551612 -20.352568110396,330.22576771914 35.850589370361,12.676322834745"
       id="path3017-74-9-4"
       inkscape:connector-curvature="0"
       sodipodi:nodetypes="ccc" />
    <path
       sodipodi:type="arc"
       style="fill:#ffffff;stroke:none"
       id="path3865-8-2"
       sodipodi:cx="8.2460546"
       sodipodi:cy="15.533863"
       sodipodi:rx="0.66743523"
       sodipodi:ry="0.21530168"
       d="m 8.9134899,15.533863 a 0.66743523,0.21530168 0 1 1 -1.3348705,0 0.66743523,0.21530168 0 1 1 1.3348705,0 z"
       transform="matrix(26.544201732492,0,0,69.9439748037,31.717461260092,-554.12298425633)" />
    <path
       style="fill:none;stroke:#00ff00;stroke-width:5.3149609842938;stroke-linecap:butt;stroke-linejoin:miter;stroke-miterlimit:4;stroke-opacity:1;stroke-dasharray:none"
       d="M 67.377008268247,465.84715748398 195.56274330863,457.79864173589"
       id="path3813-1-3"
       inkscape:connector-curvature="0"
       sodipodi:nodetypes="cc" />
    <path
       style="fill:none;stroke:#00ff00;stroke-width:5.3149609842938;stroke-linecap:butt;stroke-linejoin:miter;stroke-miterlimit:4;stroke-opacity:1;stroke-dasharray:none"
       d="M 53.883031890188,569.17247244543 207.51454488352,558.81067323275"
       id="path3813-1-2"
       inkscape:connector-curvature="0"
       sodipodi:nodetypes="cc" />
  </g>
</svg>
